
<svg version="1.0" xmlns="http://www.w3.org/2000/svg"
 width="1024.000000pt" height="1024.000000pt" viewBox="0 0 1024.000000 1024.000000"
 preserveAspectRatio="xMidYMid meet">

<g transform="translate(0.000000,1024.000000) scale(0.100000,-0.100000)"
fill="#eef0f3" stroke="none">
<path d="M355 10193 c-16 -106 -96 -217 -189 -262 -24 -12 -72 -27 -105 -33
-61 -11 -61 -12 -61 -46 l0 -35 62 7 c180 18 347 183 365 359 l6 57 -35 0
c-35 0 -36 -1 -43 -47z"/>
<path d="M1593 10233 c9 -2 23 -2 30 0 6 3 -1 5 -18 5 -16 0 -22 -2 -12 -5z"/>
<path d="M1925 10188 c-30 -239 -47 -273 -136 -273 -44 0 -54 4 -78 31 -24 26
-30 46 -40 125 -13 101 -23 122 -55 117 -20 -3 -21 -8 -18 -90 3 -116 26 -182
75 -222 33 -26 48 -31 105 -34 56 -2 74 1 107 20 59 34 80 83 100 223 9 66 19
128 21 138 5 14 -1 17 -34 17 l-40 0 -7 -52z"/>
<path d="M2141 10207 l-55 -32 -32 -120 c-55 -200 -56 -257 -7 -316 56 -66
151 -86 230 -48 35 17 53 37 98 110 58 94 66 123 38 137 -29 15 -41 4 -88 -77
-56 -97 -76 -116 -125 -116 -50 0 -84 20 -106 61 -18 34 -18 35 16 170 19 75
37 139 40 143 3 4 32 24 65 44 33 20 71 46 85 57 l25 20 -65 -1 c-54 -1 -74
-6 -119 -32z"/>
<path d="M2356 10213 c15 -69 46 -177 59 -209 11 -26 20 -34 40 -34 37 0 41
23 17 99 -12 36 -27 90 -34 119 -11 52 -12 52 -50 52 -37 0 -38 -1 -32 -27z"/>
<path d="M2506 10187 c-23 -67 -19 -92 14 -92 28 0 57 47 67 109 6 35 5 36
-29 36 -32 0 -35 -3 -52 -53z"/>
<path d="M3460 10227 c0 -21 22 -37 50 -37 28 0 50 16 50 37 0 9 -16 13 -50
13 -34 0 -50 -4 -50 -13z"/>
<path d="M3640 10203 c0 -89 51 -193 131 -268 239 -224 629 -99 698 223 17 80
16 82 -29 82 -39 0 -40 -1 -40 -35 0 -55 -37 -140 -85 -192 -54 -61 -122 -98
-205 -114 -184 -33 -370 105 -396 295 -6 44 -8 46 -40 46 -33 0 -34 -2 -34
-37z"/>
<path d="M5990 10230 c0 -5 5 -20 11 -33 9 -21 4 -41 -40 -140 -28 -63 -51
-122 -51 -131 0 -23 34 -38 53 -23 9 7 38 62 65 122 l49 110 129 52 129 52
-102 1 c-61 0 -113 -5 -129 -12 -22 -10 -28 -10 -32 0 -4 14 -82 17 -82 2z"/>
<path d="M7727 10223 c11 -32 25 -43 52 -43 31 0 51 16 51 42 0 15 -9 18 -55
18 -47 0 -54 -2 -48 -17z"/>
<path d="M7945 10225 c39 -18 123 -18 155 0 23 13 16 14 -80 14 -97 -1 -103
-2 -75 -14z"/>
<path d="M8488 10209 c-42 -34 -90 -107 -108 -162 l-12 -38 -34 46 c-36 46
-41 49 -68 39 -25 -10 -19 -46 15 -92 l31 -42 -59 0 c-44 0 -74 -7 -121 -30
-104 -49 -149 -90 -136 -124 11 -30 37 -25 101 19 107 74 194 83 274 30 39
-25 40 -27 24 -46 -28 -30 -116 -69 -156 -69 -22 0 -61 12 -95 30 -57 31 -58
31 -77 11 -26 -26 -17 -44 38 -76 60 -36 152 -44 222 -21 27 9 80 41 118 72
39 31 82 62 96 69 42 22 114 109 127 153 17 58 15 141 -6 181 -20 41 -31 46
-57 28 -17 -13 -17 -18 -5 -61 25 -89 -6 -171 -83 -227 l-41 -30 -15 28 c-20
38 -19 120 3 161 23 45 81 107 122 133 50 30 45 49 -13 49 -38 -1 -56 -7 -85
-31z"/>
<path d="M9650 10225 c0 -8 12 -22 26 -32 24 -15 29 -15 53 -2 14 8 27 22 29
32 3 14 -5 17 -52 17 -43 0 -56 -4 -56 -15z"/>
<path d="M9834 10189 c16 -116 74 -216 168 -285 58 -43 163 -84 214 -84 21 0
24 5 24 34 0 35 -12 46 -53 46 -39 0 -141 56 -184 101 -46 48 -93 139 -93 181
0 46 -10 58 -47 58 l-36 0 7 -51z"/>
<path d="M8162 10208 c-7 -7 -12 -24 -12 -38 0 -34 17 -50 52 -50 18 0 33 8
44 25 15 23 15 27 0 50 -18 27 -63 34 -84 13z"/>
<path d="M510 10180 c-24 -24 -25 -38 -4 -68 16 -24 44 -28 75 -12 27 15 25
64 -3 84 -30 21 -44 20 -68 -4z"/>
<path d="M4550 10171 c-16 -32 -12 -59 14 -76 51 -34 111 30 71 75 -23 26 -71
26 -85 1z"/>
<path d="M7867 10172 c-23 -25 -21 -55 3 -77 45 -40 109 20 75 71 -19 29 -55
31 -78 6z"/>
<path d="M8020 10150 c-25 -25 -26 -52 -2 -73 24 -22 55 -21 75 1 23 26 21 58
-5 76 -30 21 -44 20 -68 -4z"/>
<path d="M3503 10074 c-15 -24 -15 -29 -2 -53 27 -49 99 -32 99 23 0 28 -29
56 -58 56 -12 0 -29 -11 -39 -26z"/>
<path d="M9700 10071 c-23 -45 -5 -81 41 -81 32 0 59 23 59 50 0 46 -79 70
-100 31z"/>
<path d="M434 9985 c-22 -33 -7 -70 31 -79 52 -13 87 51 49 88 -24 24 -61 20
-80 -9z"/>
<path d="M4498 9999 c-10 -5 -23 -19 -29 -30 -24 -45 52 -94 89 -57 20 20 14
65 -10 82 -26 19 -27 19 -50 5z"/>
<path d="M5691 9928 c-6 -15 -5 -27 3 -36 7 -7 97 -50 200 -97 150 -68 192
-83 207 -74 22 11 25 42 7 57 -26 21 -377 172 -401 172 -4 0 -12 -10 -16 -22z"/>
<path d="M3617 9912 c-23 -25 -22 -69 2 -82 31 -16 59 -12 75 12 21 30 20 44
-4 68 -25 25 -52 26 -73 2z"/>
<path d="M9812 9908 c-7 -7 -12 -24 -12 -38 0 -14 5 -31 12 -38 7 -7 24 -12
38 -12 14 0 31 5 38 12 7 7 12 24 12 38 0 14 -5 31 -12 38 -7 7 -24 12 -38 12
-14 0 -31 -5 -38 -12z"/>
<path d="M306 9844 c-24 -23 -20 -61 9 -80 45 -29 95 9 76 59 -15 38 -58 49
-85 21z"/>
<path d="M4352 9844 c-41 -28 -19 -94 32 -94 26 0 56 29 56 53 0 20 -34 57
-53 57 -7 0 -23 -7 -35 -16z"/>
<path d="M3782 9794 c-29 -20 -30 -69 -1 -84 31 -17 62 -8 78 22 15 25 14 29
-8 52 -28 30 -38 32 -69 10z"/>
<path d="M9972 9788 c-16 -16 -15 -63 2 -77 42 -35 111 20 82 64 -15 23 -66
31 -84 13z"/>
<path d="M126 9754 c-37 -37 -1 -103 49 -90 14 4 31 17 37 31 23 52 -46 100
-86 59z"/>
<path d="M4167 9752 c-23 -25 -21 -55 3 -77 28 -25 71 -10 85 29 8 24 6 31
-14 47 -29 24 -53 24 -74 1z"/>
<path d="M3966 9734 c-41 -40 7 -109 59 -86 14 6 27 23 31 37 13 50 -53 86
-90 49z"/>
<path d="M10166 9735 c-37 -38 -2 -104 49 -91 24 6 26 10 23 54 -3 42 -6 47
-29 50 -15 2 -34 -4 -43 -13z"/>
<path d="M0 9693 c0 -28 3 -34 10 -23 13 20 13 47 0 55 -6 4 -10 -9 -10 -32z"/>
<path d="M976 9584 c-41 -40 4 -105 57 -85 16 6 29 21 33 36 13 50 -53 86 -90
49z"/>
<path d="M1143 9578 c-17 -8 -23 -20 -23 -43 0 -38 15 -55 50 -55 14 0 31 5
38 12 18 18 14 63 -6 81 -21 19 -28 20 -59 5z"/>
<path d="M7250 9573 c-93 -32 -181 -132 -224 -256 -13 -38 -26 -70 -28 -73 -3
-2 -22 3 -44 12 -85 36 -220 4 -297 -71 -59 -58 -82 -117 -82 -215 0 -76 3
-90 29 -135 16 -27 42 -61 58 -76 l29 -26 -26 -63 c-31 -74 -27 -102 15 -120
44 -18 106 8 163 68 73 79 114 222 67 237 -29 9 -46 -8 -54 -53 -8 -49 -54
-130 -88 -156 -15 -11 -30 -17 -33 -14 -11 11 36 94 64 113 36 23 45 50 24 70
-19 20 -30 19 -61 -5 l-25 -20 -25 22 c-43 41 -66 98 -66 163 0 121 79 207
204 222 59 7 124 -21 169 -72 36 -41 71 -132 71 -185 0 -44 21 -71 50 -63 30
8 95 113 115 187 38 140 -12 323 -72 263 -14 -14 -14 -22 2 -81 19 -68 14
-127 -15 -201 l-12 -30 -14 39 c-8 22 -28 62 -46 89 -30 47 -31 51 -19 96 30
115 109 228 178 257 67 29 143 13 189 -38 65 -71 84 -170 49 -261 -17 -45 -17
-51 -1 -115 23 -97 21 -118 -21 -174 -20 -28 -44 -75 -54 -104 -25 -75 -72
-139 -125 -170 -83 -49 -182 -19 -244 75 -17 25 -30 58 -30 75 0 42 -13 58
-41 54 -21 -3 -25 -10 -31 -64 -9 -80 -27 -123 -78 -178 -36 -38 -40 -48 -30
-65 22 -43 80 -13 126 65 14 24 28 44 31 44 3 0 21 -14 41 -31 112 -99 261
-94 356 12 20 21 38 39 41 39 14 0 3 -95 -15 -130 -25 -49 -25 -67 0 -80 29
-16 65 24 86 96 16 54 16 63 0 129 -23 100 -21 114 28 189 53 80 61 122 41
196 -23 84 -19 112 21 171 50 74 64 110 64 168 0 74 -14 103 -48 99 -27 -3
-27 -4 -25 -65 2 -35 1 -63 -1 -63 -3 0 -16 24 -29 54 -32 69 -94 130 -154
150 -58 20 -95 20 -153 -1z"/>
<path d="M2855 9561 c-100 -29 -165 -69 -245 -150 -228 -230 -228 -573 0 -802
145 -145 339 -201 539 -154 196 47 363 212 416 411 19 70 21 213 4 280 -50
201 -203 357 -408 418 -73 22 -227 20 -306 -3z m275 -67 c124 -28 259 -131
319 -244 106 -199 73 -430 -85 -588 -196 -197 -503 -198 -702 -3 -102 99 -162
260 -147 391 36 314 312 513 615 444z"/>
<path d="M3005 9431 c-11 -5 -39 -7 -61 -4 -83 11 -212 -62 -229 -129 -4 -13
-21 -32 -38 -43 -17 -11 -42 -42 -56 -70 -24 -46 -26 -59 -25 -180 0 -108 4
-138 21 -175 22 -50 76 -108 109 -116 11 -3 28 -18 37 -34 25 -41 130 -91 193
-92 126 -1 200 8 246 30 48 24 108 82 108 106 0 8 16 26 35 40 19 15 47 51 62
79 27 54 27 51 24 240 -1 74 -32 147 -82 192 -22 19 -44 35 -49 35 -6 0 -26
17 -45 39 -19 21 -57 48 -83 59 -56 24 -138 35 -167 23z m-67 -84 c6 -7 14
-64 18 -127 l7 -114 -69 61 c-38 34 -80 71 -94 82 l-25 20 31 31 c17 17 48 37
70 45 49 18 49 18 62 2z m210 -12 c28 -13 52 -29 52 -36 0 -6 -35 -51 -77
-101 l-78 -89 -6 38 c-4 21 -10 77 -14 126 l-7 87 39 0 c21 0 62 -11 91 -25z
m143 -105 c20 -11 69 -99 69 -124 0 -8 -5 -18 -10 -21 -13 -8 -204 -28 -227
-23 -13 2 2 25 61 91 42 48 80 87 82 87 3 0 14 -5 25 -10z m-456 -110 l86 -75
-43 -6 c-24 -4 -82 -10 -130 -14 l-88 -7 0 30 c0 63 48 156 76 150 7 -2 52
-37 99 -78z m527 -165 c-4 -49 -44 -130 -65 -130 -16 0 -191 144 -184 152 7 6
165 21 212 19 l40 -1 -3 -40z m-481 -32 c-16 -21 -52 -63 -79 -93 l-50 -55
-22 20 c-29 26 -60 88 -60 119 0 33 27 39 188 44 l54 2 -31 -37z m114 -120 c3
-54 9 -108 12 -120 5 -20 1 -23 -28 -23 -50 0 -106 18 -136 44 l-26 23 79 90
c43 50 82 89 85 87 4 -2 10 -48 14 -101z m119 67 c24 -23 62 -55 85 -72 56
-44 54 -56 -13 -102 -22 -15 -53 -26 -71 -26 -32 0 -33 1 -39 53 -14 133 -18
187 -12 187 4 0 27 -18 50 -40z"/>
<path d="M9112 9538 c-22 -22 -12 -46 40 -92 56 -49 81 -56 97 -29 13 24 -1
46 -60 93 -56 44 -60 45 -77 28z"/>
<path d="M837 9522 c-34 -37 -11 -92 38 -92 24 0 55 33 55 57 0 19 -37 53 -58
53 -11 0 -26 -8 -35 -18z"/>
<path d="M1262 9480 c-12 -12 -22 -29 -22 -39 0 -40 69 -68 98 -39 16 16 15
63 0 76 -28 21 -54 22 -76 2z"/>
<path d="M8720 9471 c-74 -23 -127 -69 -159 -141 -69 -151 48 -330 216 -330
67 0 123 22 123 48 0 34 -24 45 -65 32 -58 -19 -119 -5 -164 38 -148 141 26
362 202 259 49 -29 72 -28 80 4 15 57 -141 118 -233 90z"/>
<path d="M1015 9449 c-51 -12 -110 -59 -135 -110 -24 -47 -26 -128 -4 -172 86
-171 322 -158 383 22 17 53 13 93 -16 152 -44 86 -135 129 -228 108z m105 -84
c48 -25 70 -62 70 -116 0 -42 -5 -55 -33 -85 -28 -30 -42 -37 -83 -41 -65 -6
-113 24 -134 85 -13 37 -13 47 0 84 26 75 110 109 180 73z"/>
<path d="M8938 9343 c-103 -42 -190 -83 -192 -90 -9 -24 4 -38 114 -129 92
-74 109 -93 105 -111 -7 -31 18 -87 46 -107 13 -9 42 -16 65 -16 35 0 47 5 73
35 17 20 31 42 31 49 0 9 37 24 100 41 108 30 130 47 105 81 -13 18 -16 18
-120 -9 -147 -39 -150 -35 -117 137 l17 88 99 -83 c55 -46 113 -96 129 -110
l30 -25 -33 -115 c-76 -260 -75 -254 -40 -259 34 -5 40 3 64 83 75 247 86 286
86 304 0 22 -328 307 -357 310 -10 1 -102 -32 -205 -74z m146 -60 c-26 -144
-34 -177 -46 -184 -19 -13 -17 -14 -93 51 -38 33 -74 60 -78 60 -5 0 -7 5 -5
11 3 9 199 97 221 98 4 1 5 -16 1 -36z m0 -259 c18 -7 22 -49 6 -59 -19 -12
-50 6 -50 29 0 34 12 42 44 30z"/>
<path d="M8968 9249 c-34 -19 -29 -99 7 -99 23 0 45 30 45 60 0 34 -26 53 -52
39z"/>
<path d="M742 9398 c-29 -29 -1 -98 40 -98 16 0 42 26 51 51 14 42 -59 79 -91
47z"/>
<path d="M9412 9378 c-20 -20 -14 -35 28 -70 38 -33 39 -36 29 -72 -12 -44 2
-69 35 -64 16 2 26 17 39 57 10 29 15 61 12 70 -8 21 -96 91 -115 91 -9 0 -21
-5 -28 -12z"/>
<path d="M5063 9346 c-120 -39 -192 -136 -195 -263 -2 -78 6 -90 62 -97 101
-13 259 29 363 98 60 40 97 82 97 112 0 23 -88 107 -139 134 -52 26 -135 33
-188 16z m155 -85 c20 -10 48 -31 61 -45 23 -25 23 -27 7 -45 -47 -52 -203
-111 -293 -111 -48 0 -53 2 -53 23 0 71 53 155 114 182 46 20 121 18 164 -4z"/>
<path d="M1322 9338 c-21 -21 -14 -66 12 -83 28 -19 58 -9 76 26 25 45 -51 94
-88 57z"/>
<path d="M5404 9296 c-3 -8 -4 -23 -2 -33 3 -15 17 -19 94 -24 203 -13 247
-105 116 -242 -202 -212 -696 -358 -882 -262 -44 23 -56 55 -40 105 10 32 11
42 0 55 -34 40 -80 -12 -80 -91 0 -45 5 -59 30 -87 133 -152 588 -88 905 126
308 209 277 467 -57 467 -59 0 -80 -4 -84 -14z"/>
<path d="M750 9253 c-8 -3 -21 -12 -27 -21 -42 -52 36 -113 80 -64 22 25 21
48 -3 72 -21 21 -25 22 -50 13z"/>
<path d="M1310 9180 c-36 -36 -16 -90 34 -90 51 0 74 66 34 94 -30 21 -44 20
-68 -4z"/>
<path d="M4532 9161 c-8 -4 -12 -19 -10 -32 2 -20 13 -26 68 -40 70 -17 140
-48 140 -61 0 -4 -42 -8 -92 -8 -144 0 -203 -24 -178 -70 9 -17 17 -21 38 -16
15 4 95 10 177 14 83 4 156 11 163 16 22 13 13 54 -20 89 -44 46 -111 83 -183
101 -67 18 -84 19 -103 7z"/>
<path d="M6779 9139 c-47 -27 -69 -66 -69 -121 0 -82 57 -138 141 -138 146 0
189 196 58 262 -45 23 -86 22 -130 -3z m102 -59 c15 0 38 -56 32 -78 -7 -28
-19 -28 -26 -1 -4 16 -12 20 -34 17 -22 -2 -29 -9 -33 -33 l-6 -30 -18 28
c-15 22 -17 35 -10 55 10 29 51 55 72 47 8 -3 18 -5 23 -5z"/>
<path d="M5384 9102 c-50 -57 -126 -104 -226 -140 -60 -21 -91 -26 -178 -26
l-105 -1 -3 -27 c-4 -36 25 -48 117 -48 166 0 383 97 466 209 29 41 30 45 9
65 -24 24 -36 20 -80 -32z"/>
<path d="M785 9086 c-19 -28 -9 -58 26 -76 45 -25 94 51 57 88 -21 21 -66 14
-83 -12z"/>
<path d="M1217 9052 c-22 -25 -21 -55 2 -76 26 -24 62 -17 80 15 13 24 13 29
-2 53 -21 31 -56 34 -80 8z"/>
<path d="M915 9000 c-23 -25 -13 -67 20 -82 52 -23 100 46 59 86 -21 22 -57
20 -79 -4z"/>
<path d="M1082 8994 c-24 -17 -30 -62 -10 -82 37 -37 113 12 88 57 -9 17 -39
41 -52 41 -2 0 -14 -7 -26 -16z"/>
<path d="M9249 8962 c-100 -51 -145 -155 -119 -270 17 -77 92 -153 168 -172
161 -38 302 71 302 233 -1 80 -57 187 -100 187 -36 0 -55 -51 -25 -67 23 -13
55 -83 55 -121 0 -41 -31 -104 -66 -131 -108 -85 -266 -9 -266 128 0 80 32
125 115 160 38 16 47 25 47 45 0 44 -37 47 -111 8z"/>
<path d="M535 8939 c-9 -28 7 -43 74 -69 110 -43 171 -119 171 -213 0 -54 -10
-58 -75 -28 -77 34 -125 113 -125 203 0 28 -5 38 -20 43 -39 13 -53 -12 -48
-87 9 -121 84 -204 221 -247 34 -11 89 -32 122 -47 114 -53 232 -34 318 51 40
40 45 70 15 89 -14 9 -25 4 -55 -26 -51 -48 -93 -68 -146 -68 -50 0 -137 27
-137 42 0 6 17 27 38 48 65 65 156 75 278 29 61 -23 88 -15 82 25 -7 48 -219
95 -299 67 -18 -6 -34 -10 -36 -8 -2 2 5 25 14 51 19 51 11 81 -23 81 -18 0
-36 -25 -54 -79 l-10 -28 -29 39 c-40 55 -87 92 -158 125 -76 34 -109 36 -118
7z"/>
<path d="M199 8466 c-74 -51 -103 -138 -48 -144 21 -2 31 4 47 33 12 19 38 45
57 57 29 16 35 26 33 47 -4 36 -42 39 -89 7z"/>
<path d="M10141 8402 c-33 -10 -49 -37 -35 -59 6 -10 16 -18 23 -17 6 1 34 2
62 3 l50 1 -3 38 c-3 35 -5 37 -38 39 -19 1 -46 -2 -59 -5z"/>
<path d="M0 8364 c0 -25 7 -41 23 -55 l22 -18 -22 -1 c-19 0 -23 -6 -23 -32 0
-31 3 -34 58 -51 31 -9 70 -17 85 -17 36 0 87 -22 110 -48 10 -11 21 -40 24
-64 8 -59 19 -78 48 -78 65 0 30 164 -46 215 -43 29 -36 39 23 30 105 -15 113
-14 113 20 0 26 -5 31 -40 41 -61 19 -154 16 -201 -5 l-41 -19 -19 35 c-18 35
-77 83 -101 83 -8 0 -13 -14 -13 -36z"/>
<path d="M4118 8361 c-48 -16 -88 -45 -116 -85 -23 -34 -27 -49 -27 -111 0
-63 4 -77 35 -129 19 -32 52 -73 73 -92 31 -29 41 -33 57 -24 30 16 25 34 -29
101 -92 114 -88 207 9 257 36 19 56 22 96 19 66 -7 106 -27 171 -89 45 -42 56
-47 73 -38 34 18 24 53 -27 102 -69 63 -131 91 -217 94 -39 2 -83 0 -98 -5z"/>
<path d="M1622 8348 c-32 -40 -43 -386 -16 -516 51 -253 211 -392 449 -392 46
0 86 -3 89 -8 2 -4 9 -36 16 -72 17 -97 24 -114 43 -118 10 -2 25 2 33 9 18
15 14 69 -12 174 l-15 61 40 75 c187 347 74 604 -326 740 -117 40 -165 46
-183 24 -24 -29 0 -45 113 -80 139 -42 227 -87 299 -153 78 -73 109 -137 109
-229 0 -84 -12 -135 -53 -222 l-30 -63 -48 90 c-83 156 -228 354 -282 383 -22
12 -48 -3 -48 -28 0 -9 22 -41 48 -72 26 -31 72 -90 102 -131 58 -81 160 -270
160 -296 0 -15 -10 -16 -81 -11 -193 13 -313 134 -356 358 -16 88 -13 313 6
409 6 27 6 52 0 62 -11 21 -42 24 -57 6z"/>
<path d="M8198 8285 c-14 -31 1 -70 29 -77 49 -13 87 36 63 81 -17 32 -77 29
-92 -4z"/>
<path d="M8402 8288 c-17 -17 -15 -64 4 -82 33 -34 84 -8 84 43 0 34 -17 51
-50 51 -14 0 -31 -5 -38 -12z"/>
<path d="M10159 8267 c-58 -31 -98 -88 -105 -152 -5 -40 -3 -54 11 -65 25 -21
46 -2 60 53 13 53 43 89 86 107 24 10 29 18 29 46 0 42 -18 44 -81 11z"/>
<path d="M8027 8222 c-22 -25 -21 -55 2 -76 26 -24 62 -17 80 15 13 24 13 29
-2 53 -21 31 -56 34 -80 8z"/>
<path d="M6243 8205 c-57 -24 -92 -107 -58 -135 20 -16 43 -6 55 24 5 14 20
32 33 41 29 19 55 11 125 -37 l46 -32 -77 -13 c-43 -7 -94 -20 -114 -28 -20
-8 -44 -13 -53 -10 -22 7 -307 -81 -341 -105 -15 -10 -42 -22 -61 -25 -19 -4
-65 -21 -102 -39 -76 -37 -79 -33 -40 50 33 70 60 85 109 58 27 -14 39 -16 53
-8 46 29 -17 94 -91 94 -79 0 -134 -72 -181 -234 -30 -101 -33 -154 -11 -162
8 -3 20 -25 26 -47 37 -139 132 -220 260 -221 56 -1 72 3 114 29 75 47 123
143 140 285 4 30 9 59 12 63 3 4 37 -26 76 -66 43 -44 95 -86 127 -103 207
-106 410 94 330 326 -12 37 -15 59 -9 67 16 19 -5 47 -88 118 -82 70 -180 125
-222 125 -14 -1 -41 -7 -58 -15z m261 -246 c36 -28 57 -83 58 -149 2 -100 -56
-170 -145 -178 -66 -5 -100 11 -175 82 -63 59 -96 117 -88 152 21 81 278 149
350 93z m-424 -84 c-4 -19 -6 -35 -3 -35 2 0 1 -5 -2 -10 -4 -6 -19 3 -36 21
-33 35 -33 34 1 48 43 17 49 14 40 -24z m-116 -56 c13 -6 27 -21 30 -33 12
-43 5 -126 -14 -189 -33 -107 -79 -147 -169 -147 -40 0 -57 6 -93 33 -78 59
-110 166 -68 234 43 71 241 135 314 102z"/>
<path d="M4156 8185 c-3 -9 3 -47 14 -83 21 -67 42 -225 33 -248 -5 -14 224
-223 265 -241 96 -43 224 22 252 128 16 57 4 98 -51 186 -61 97 -71 107 -98
98 -33 -10 -26 -43 29 -130 55 -87 61 -121 31 -171 -22 -36 -78 -59 -116 -50
-13 3 -71 48 -127 98 l-103 92 -12 98 c-6 54 -15 107 -18 119 -7 20 -5 21 21
14 67 -17 211 -45 235 -45 29 0 49 17 49 41 0 25 -12 30 -88 40 -37 4 -107 20
-157 35 -122 37 -151 40 -159 19z"/>
<path d="M8572 8188 c-21 -21 -15 -63 12 -77 49 -27 96 12 73 59 -14 28 -64
39 -85 18z"/>
<path d="M0 8130 c0 -37 2 -41 15 -30 8 7 15 20 15 30 0 10 -7 23 -15 30 -13
11 -15 7 -15 -30z"/>
<path d="M10202 8158 c-23 -23 -7 -68 25 -68 9 0 13 14 13 40 0 41 -14 52 -38
28z"/>
<path d="M50 8126 c-15 -48 -16 -142 -1 -203 7 -29 30 -80 52 -113 21 -33 34
-60 29 -60 -5 0 -30 11 -56 25 -63 34 -74 32 -74 -10 0 -30 5 -37 39 -55 l40
-20 -30 -65 c-41 -87 -56 -186 -41 -267 12 -67 33 -94 61 -78 13 7 16 29 16
132 0 114 2 127 28 179 76 155 218 238 387 226 41 -3 94 -13 117 -23 35 -14
45 -14 58 -4 28 23 18 50 -28 70 -119 53 -283 43 -404 -25 -54 -30 -62 -26
-100 49 -30 58 -41 152 -25 209 14 50 7 67 -28 67 -23 0 -30 -6 -40 -34z"/>
<path d="M8219 8145 c-99 -32 -217 -144 -193 -183 21 -33 45 -26 90 26 70 80
159 111 255 91 209 -45 276 -291 122 -447 -29 -30 -53 -58 -53 -62 0 -17 31
-32 53 -26 39 9 112 96 137 162 45 120 11 276 -80 358 -92 83 -225 115 -331
81z"/>
<path d="M151 8126 c-16 -20 -5 -53 20 -61 27 -9 51 13 47 44 -2 20 -9 27 -29
29 -14 2 -31 -4 -38 -12z"/>
<path d="M7890 8080 c-11 -11 -20 -26 -20 -33 0 -24 31 -57 55 -57 52 0 74 65
33 94 -30 21 -44 20 -68 -4z"/>
<path d="M8692 8034 c-45 -31 -21 -94 37 -94 20 0 51 34 51 55 0 38 -55 62
-88 39z"/>
<path d="M10013 7970 c-59 -36 -86 -105 -62 -162 11 -26 11 -32 0 -36 -7 -2
-29 -18 -49 -36 -76 -66 -99 -196 -36 -196 26 0 29 5 38 60 4 19 15 46 25 60
l19 24 11 -39 c13 -48 66 -115 91 -115 9 0 23 7 30 15 12 15 5 55 -10 55 -14
0 -40 55 -40 84 0 14 9 40 20 59 l20 34 -25 27 c-47 51 -24 107 46 115 14 2
19 33 9 52 -14 24 -46 24 -87 -1z"/>
<path d="M3660 7948 c-163 -87 -135 -337 50 -454 60 -37 81 -42 100 -19 19 23
3 51 -41 70 -46 21 -105 82 -125 131 -8 18 -14 58 -14 88 0 43 5 60 25 84 52
62 126 66 232 12 66 -34 76 -36 93 -15 21 25 1 50 -67 84 -94 47 -188 54 -253
19z"/>
<path d="M7735 7901 c-53 -24 -91 -70 -100 -120 -6 -34 -12 -42 -40 -51 -73
-24 -105 -102 -71 -169 18 -34 79 -89 115 -103 14 -6 44 -19 66 -28 519 -226
571 -242 654 -198 25 13 53 35 64 49 42 59 28 176 -27 228 -23 22 -24 24 -9
59 19 46 20 137 1 182 -22 50 -63 96 -116 127 -40 24 -58 27 -127 28 -64 0
-89 -5 -127 -23 -47 -23 -48 -24 -75 -4 -65 45 -142 53 -208 23z m155 -79 c14
-8 31 -24 38 -34 16 -21 55 -24 71 -4 6 8 35 24 63 36 125 53 268 -31 268
-157 0 -21 -11 -62 -25 -91 -28 -59 -26 -71 14 -95 37 -22 64 -79 56 -116 -3
-16 -17 -39 -30 -51 -44 -41 -108 -26 -370 84 -306 128 -353 152 -376 190 -22
37 -23 37 -6 59 7 10 30 19 54 21 24 3 47 7 53 11 5 3 10 30 10 58 0 31 6 62
15 75 30 42 110 49 165 14z"/>
<path d="M756 7836 c-30 -52 -58 -71 -123 -87 -107 -26 -146 -60 -192 -161
-33 -73 -50 -87 -138 -108 -83 -19 -129 -59 -168 -144 -33 -73 -68 -111 -112
-122 -19 -5 -23 -13 -23 -45 0 -45 5 -46 63 -19 61 29 93 62 132 140 36 71 71
107 114 116 83 18 123 38 156 77 19 22 35 44 35 49 0 4 10 29 22 54 26 55 59
78 140 94 53 10 68 18 114 65 72 72 86 135 30 135 -18 0 -31 -11 -50 -44z"/>
<path d="M8708 7825 c-14 -31 1 -70 29 -77 49 -13 87 36 63 81 -17 32 -77 29
-92 -4z"/>
<path d="M9768 7819 c-29 -15 -38 -26 -38 -45 0 -34 21 -39 74 -19 26 10 56
15 70 11 26 -6 56 14 56 39 0 38 -101 47 -162 14z"/>
<path d="M10108 7809 c-21 -12 -24 -42 -5 -57 6 -5 40 -12 75 -14 l62 -4 0 37
c0 34 -2 37 -37 43 -52 8 -75 7 -95 -5z"/>
<path d="M4020 7798 c-19 -5 -91 -10 -159 -11 -155 -2 -160 -7 -108 -94 32
-53 96 -182 125 -255 13 -31 42 -37 62 -13 15 18 3 57 -56 182 -24 51 -44 94
-44 96 0 2 37 7 83 10 45 4 98 9 117 12 31 5 46 -1 135 -65 126 -89 145 -109
145 -162 0 -32 -7 -47 -34 -74 -43 -43 -73 -44 -188 -3 -72 26 -91 29 -103 19
-18 -15 -20 -44 -2 -57 6 -5 56 -24 111 -42 75 -24 108 -31 137 -26 138 24
205 207 110 302 -43 44 -262 193 -280 192 -9 -1 -32 -5 -51 -11z"/>
<path d="M8672 7654 c-24 -17 -30 -62 -10 -82 29 -29 98 -1 98 39 0 42 -53 68
-88 43z"/>
<path d="M8542 7504 c-27 -18 -29 -55 -4 -77 24 -22 55 -21 75 1 22 25 21 48
-3 72 -24 24 -38 25 -68 4z"/>
<path d="M10211 7182 c-6 -11 -6 -24 0 -35 16 -28 29 -20 29 18 0 38 -13 46
-29 17z"/>
<path d="M2966 7124 c-33 -32 -10 -94 35 -94 23 0 59 34 59 55 0 21 -36 55
-59 55 -11 0 -27 -7 -35 -16z"/>
<path d="M3172 7124 c-41 -29 -19 -94 33 -94 24 0 55 33 55 57 0 17 -36 53
-53 53 -7 0 -23 -7 -35 -16z"/>
<path d="M2777 7052 c-23 -25 -21 -55 3 -77 46 -41 116 29 75 75 -23 25 -57
26 -78 2z"/>
<path d="M3345 7036 c-32 -49 23 -103 72 -70 25 16 31 62 11 82 -21 21 -66 14
-83 -12z"/>
<path d="M986 7000 c-149 -31 -219 -57 -261 -94 -34 -29 -38 -37 -29 -53 16
-26 40 -28 70 -4 34 26 128 57 249 80 111 22 135 40 99 75 -19 19 -17 19 -128
-4z"/>
<path d="M1144 7005 c-4 -9 1 -57 11 -108 10 -51 18 -96 19 -101 0 -5 -18 -13
-42 -18 -36 -8 -48 -6 -77 12 -42 26 -79 23 -83 -6 -4 -27 4 -32 207 -160 96
-60 179 -112 183 -115 5 -3 -30 -68 -77 -145 -48 -76 -110 -176 -138 -221 -29
-46 -56 -83 -61 -83 -4 0 -91 52 -192 115 -101 64 -190 118 -199 121 -8 4 -22
1 -30 -6 -26 -22 -17 -49 25 -75 28 -18 42 -36 51 -65 7 -22 10 -42 8 -44 -2
-2 -44 -14 -94 -27 -118 -30 -156 -62 -105 -89 15 -8 48 -3 142 21 68 18 129
39 135 47 7 8 10 26 7 39 -4 12 -3 23 1 23 8 0 103 -56 189 -112 32 -21 68
-38 80 -38 17 0 55 54 189 270 115 184 167 275 163 287 -4 10 -65 54 -136 98
-121 75 -140 94 -88 95 9 0 19 8 23 19 5 16 -40 254 -51 273 -9 14 -54 8 -60
-7z"/>
<path d="M9419 6997 c-43 -28 -82 -102 -68 -128 5 -11 20 -19 33 -19 17 0 28
10 41 41 23 49 54 64 100 48 42 -16 65 -6 65 26 0 52 -110 73 -171 32z"/>
<path d="M9020 6963 c-139 -71 -85 -367 102 -568 115 -123 231 -165 309 -112
110 74 84 283 -62 498 -98 145 -259 229 -349 182z m138 -81 c139 -75 287 -336
266 -470 -12 -77 -45 -96 -118 -68 -44 17 -172 125 -149 126 7 0 54 -18 105
-40 108 -47 133 -48 133 -6 0 28 -6 31 -162 99 -126 54 -164 75 -172 95 -7 13
-10 27 -7 29 2 2 65 -23 141 -56 75 -34 143 -61 150 -61 8 0 19 10 26 21 8 17
8 24 -3 35 -8 8 -88 48 -179 88 -101 46 -165 80 -167 90 -2 9 -1 16 1 16 2 0
51 -20 107 -46 117 -51 145 -53 145 -10 0 27 -6 31 -115 78 -63 28 -119 54
-124 59 -5 5 -4 14 4 24 17 20 77 19 118 -3z"/>
<path d="M2995 6956 c-162 -40 -287 -177 -314 -343 -29 -181 67 -361 236 -445
64 -31 73 -33 178 -33 103 0 114 2 177 32 166 78 267 264 239 439 -38 247
-278 409 -516 350z m250 -96 c65 -32 134 -102 165 -165 21 -42 25 -65 25 -145
0 -84 -3 -102 -28 -152 -36 -72 -122 -151 -191 -175 -31 -11 -81 -18 -126 -18
-273 0 -433 306 -280 537 34 51 102 105 165 131 63 26 205 19 270 -13z"/>
<path d="M2632 6924 c-41 -29 -19 -94 33 -94 51 0 71 54 35 90 -24 24 -38 25
-68 4z"/>
<path d="M7280 6929 c-111 -21 -305 -147 -298 -193 5 -33 43 -32 86 2 107 84
202 123 304 125 68 1 68 1 114 -43 132 -130 186 -321 138 -486 -32 -110 -136
-225 -247 -274 -112 -49 -249 -45 -362 10 -60 29 -135 84 -135 100 0 4 15 11
33 14 48 9 172 71 242 120 78 56 192 176 237 251 34 57 78 168 78 198 0 22
-27 39 -49 32 -13 -4 -26 -26 -40 -74 -37 -122 -143 -255 -285 -356 -80 -57
-193 -105 -247 -105 l-39 0 0 53 c0 66 29 153 77 231 39 63 37 88 -5 94 -16 2
-30 -10 -57 -51 -78 -117 -110 -286 -71 -369 21 -45 106 -131 171 -174 270
-179 642 -56 762 252 37 95 39 247 4 344 -45 128 -148 263 -225 295 -38 16
-115 18 -186 4z"/>
<path d="M3520 6922 c-8 -2 -21 -11 -27 -20 -43 -54 36 -113 82 -62 33 37 -8
97 -55 82z"/>
<path d="M9499 6867 c-43 -28 -82 -102 -68 -128 16 -32 53 -24 72 16 24 51 54
67 99 53 46 -14 68 -5 68 27 0 52 -110 73 -171 32z"/>
<path d="M8811 6822 c-150 -149 -144 -396 14 -558 59 -60 128 -98 211 -115
113 -23 256 16 262 73 4 37 -24 43 -83 17 -58 -26 -144 -28 -215 -4 -67 22
-148 97 -185 172 -40 78 -47 197 -17 267 26 58 65 109 96 126 31 16 39 36 26
61 -18 33 -49 22 -109 -39z"/>
<path d="M5312 6828 c-22 -22 -13 -39 55 -109 53 -56 72 -69 93 -67 48 6 37
41 -36 117 -66 70 -89 82 -112 59z"/>
<path d="M6618 6773 c-116 -60 -128 -69 -128 -94 0 -15 7 -29 15 -33 9 -3 69
21 136 55 l121 60 161 -119 c89 -65 162 -124 162 -132 0 -18 -128 -106 -133
-91 -2 6 8 31 22 55 31 53 32 72 7 86 -53 28 -135 -137 -97 -195 37 -57 141
-18 263 98 161 153 216 293 129 327 -32 12 -75 -1 -137 -41 -62 -40 -82 -65
-68 -91 13 -24 36 -23 73 6 52 39 96 59 96 43 0 -10 -64 -111 -85 -135 -2 -2
-88 57 -190 132 -103 75 -195 136 -204 136 -9 0 -73 -30 -143 -67z"/>
<path d="M637 6823 c-14 -13 -6 -36 23 -70 38 -43 40 -93 5 -138 -29 -39 -68
-48 -113 -29 -40 16 -72 4 -72 -26 0 -27 39 -50 98 -57 70 -8 132 28 167 97
28 56 31 96 11 145 -26 61 -93 105 -119 78z"/>
<path d="M2537 6742 c-32 -35 -11 -92 34 -92 23 0 59 34 59 55 0 21 -36 55
-58 55 -11 0 -26 -8 -35 -18z"/>
<path d="M9594 6746 c-52 -23 -106 -115 -83 -142 20 -25 55 -17 69 15 21 51
42 63 107 59 52 -3 58 -1 61 18 7 47 -91 79 -154 50z"/>
<path d="M3581 6726 c-19 -23 -9 -69 18 -82 52 -26 104 34 66 76 -21 23 -67
26 -84 6z"/>
<path d="M5095 6724 c-120 -25 -240 -69 -264 -97 -17 -21 -10 -51 13 -55 10
-2 43 8 75 22 31 14 83 32 114 40 62 16 207 32 207 23 0 -3 -15 -28 -34 -56
-38 -56 -76 -149 -76 -186 0 -15 7 -26 20 -30 22 -7 50 9 50 29 0 26 70 156
114 209 51 62 56 81 27 97 -19 9 -203 12 -246 4z"/>
<path d="M4585 6639 c-82 -31 -135 -107 -135 -194 0 -210 281 -273 378 -85 63
124 -22 272 -164 285 -27 3 -62 0 -79 -6z m150 -102 c43 -43 53 -92 29 -142
-49 -104 -196 -97 -233 11 -18 52 -9 88 34 131 29 29 39 33 85 33 46 0 56 -4
85 -33z"/>
<path d="M8487 6594 c-14 -14 -7 -53 11 -58 9 -2 46 -6 81 -8 52 -2 66 0 75
15 8 12 8 22 0 35 -9 13 -28 18 -86 20 -40 1 -77 0 -81 -4z"/>
<path d="M2516 6544 c-32 -31 -10 -94 33 -94 29 0 54 25 54 55 0 48 -55 72
-87 39z"/>
<path d="M3595 6516 c-29 -44 18 -96 66 -73 27 14 38 60 18 83 -19 23 -66 17
-84 -10z"/>
<path d="M454 6493 c-24 -24 -14 -178 20 -308 29 -107 39 -125 67 -125 33 0
40 31 19 98 -34 107 -53 222 -46 275 8 71 -20 99 -60 60z"/>
<path d="M2572 6354 c-24 -16 -28 -44 -12 -75 21 -39 100 -12 100 34 0 20 -34
57 -53 57 -7 0 -23 -7 -35 -16z"/>
<path d="M5001 6347 c-50 -25 -97 -89 -107 -146 -15 -79 35 -174 110 -210 77
-38 164 -24 228 37 47 44 61 87 56 163 -3 46 -11 67 -34 96 -63 79 -167 104
-253 60z m156 -69 c88 -53 79 -186 -14 -224 -50 -21 -99 -10 -140 31 -28 28
-33 40 -33 83 0 57 25 96 74 118 44 19 74 17 113 -8z"/>
<path d="M3542 6338 c-29 -29 -1 -99 39 -98 26 1 49 27 49 57 0 36 -16 53 -50
53 -14 0 -31 -5 -38 -12z"/>
<path d="M2682 6188 c-7 -7 -12 -24 -12 -38 0 -34 17 -50 52 -50 18 0 33 8 44
25 15 23 15 27 0 50 -18 27 -63 34 -84 13z"/>
<path d="M3415 6170 c-38 -42 14 -102 66 -76 47 23 32 96 -20 96 -15 0 -36 -9
-46 -20z"/>
<path d="M8855 6116 c-8 -20 -22 -52 -30 -72 -18 -41 -8 -64 30 -64 18 0 28
12 50 64 32 75 30 100 -7 104 -23 3 -30 -2 -43 -32z"/>
<path d="M2862 6084 c-24 -17 -30 -62 -10 -82 16 -16 63 -15 75 1 21 26 21 46
2 71 -24 30 -36 32 -67 10z"/>
<path d="M3245 6070 c-37 -41 11 -104 61 -81 50 23 34 101 -21 101 -12 0 -30
-9 -40 -20z"/>
<path d="M3063 6050 c-51 -21 -30 -100 27 -100 50 0 69 66 28 94 -25 18 -25
18 -55 6z"/>
<path d="M4147 5913 c-13 -21 -58 -104 -101 -185 -64 -124 -80 -147 -99 -146
-54 2 -72 -4 -107 -39 -51 -52 -59 -99 -27 -164 16 -34 21 -53 14 -65 -10 -18
6 -64 23 -64 6 0 22 11 36 25 16 16 36 25 57 25 68 0 137 71 137 140 0 19 -9
52 -20 73 l-20 38 92 179 c77 148 91 182 82 197 -19 31 -42 27 -67 -14z m-161
-429 c30 -29 27 -67 -8 -96 -27 -23 -49 -23 -82 3 -32 25 -35 70 -6 99 27 27
66 25 96 -6z"/>
<path d="M5857 5823 c-15 -14 -6 -48 20 -75 15 -16 32 -43 38 -61 7 -24 17
-33 37 -35 22 -3 29 2 34 21 16 66 -90 189 -129 150z"/>
<path d="M2108 5789 c-185 -27 -292 -80 -308 -153 -14 -65 22 -140 64 -134 22
3 25 27 11 93 -5 23 -2 35 12 48 17 15 123 57 144 57 4 0 -7 -22 -26 -50 -18
-27 -43 -75 -55 -107 -11 -31 -27 -61 -34 -67 -16 -13 -128 -299 -132 -336 -1
-14 -14 -56 -28 -95 -14 -38 -26 -84 -26 -102 0 -52 -15 -46 -49 19 -46 90
-42 115 22 141 40 17 49 45 22 67 -23 19 -88 -3 -119 -41 -56 -66 -28 -168 91
-325 55 -74 72 -88 98 -78 9 4 38 -3 65 -15 68 -29 162 -30 226 -2 182 81 193
280 23 453 -32 33 -57 63 -54 68 2 4 42 10 87 12 201 13 312 100 312 242 -1
72 -26 136 -74 184 -33 34 -118 82 -144 82 -7 0 -21 11 -30 25 -9 14 -22 24
-29 24 -6 -1 -38 -5 -69 -10z m185 -145 c117 -82 116 -239 -2 -293 -53 -24
-169 -44 -208 -36 -16 4 -38 8 -50 11 -36 7 -47 61 -29 135 22 83 74 178 111
201 45 28 123 20 178 -18z m-334 -355 c17 -17 31 -32 31 -34 0 -2 -20 -5 -45
-7 -25 -2 -45 -1 -45 1 0 7 24 71 26 71 1 0 16 -14 33 -31z m47 -137 c91 -67
161 -182 151 -252 -18 -133 -204 -186 -318 -91 -26 22 -32 36 -36 78 -8 80 37
202 97 262 39 38 56 39 106 3z"/>
<path d="M4201 5763 c-28 -15 -53 -35 -57 -45 -6 -21 11 -48 32 -48 8 0 14 -3
14 -7 0 -8 -131 -477 -135 -481 -4 -5 -485 131 -485 137 0 3 26 19 58 35 103
52 132 74 132 100 0 48 -32 41 -179 -41 -104 -58 -143 -84 -147 -101 -4 -13
-3 -27 2 -32 5 -5 59 -22 119 -39 61 -17 198 -54 305 -84 l195 -54 61 -107
c72 -126 76 -130 102 -122 38 12 33 36 -32 151 l-64 113 84 302 c46 166 84
308 84 316 0 31 -36 34 -89 7z"/>
<path d="M17 5762 c-21 -23 -22 -46 -1 -66 18 -19 65 -21 82 -4 15 15 15 61 0
76 -18 18 -63 14 -81 -6z"/>
<path d="M7847 5766 c-105 -38 -177 -145 -185 -275 -5 -85 6 -121 38 -121 28
0 39 28 33 81 -14 121 80 249 182 249 83 0 130 -59 147 -184 11 -84 25 -104
58 -86 21 11 22 16 16 87 -7 92 -37 162 -86 207 -59 53 -130 68 -203 42z"/>
<path d="M212 5758 c-21 -21 -14 -66 12 -83 28 -19 58 -9 76 26 25 45 -51 94
-88 57z"/>
<path d="M10082 5694 c-26 -18 -28 -41 -6 -72 18 -27 55 -29 77 -4 22 24 21
55 -1 75 -23 21 -41 21 -70 1z"/>
<path d="M387 5662 c-50 -55 21 -124 73 -72 24 24 25 38 4 68 -18 27 -55 29
-77 4z"/>
<path d="M5754 5671 c-44 -11 -54 -19 -54 -46 0 -28 16 -35 68 -28 23 3 53 2
68 -1 l28 -7 -32 -21 c-33 -21 -82 -92 -82 -120 0 -23 26 -41 48 -33 11 3 25
19 32 36 22 52 56 71 115 64 51 -7 52 -6 65 24 23 57 60 61 112 14 46 -43 87
-12 57 44 -33 61 -144 80 -194 33 l-24 -22 -30 21 c-33 24 -105 52 -130 50 -9
-1 -30 -4 -47 -8z"/>
<path d="M6537 5674 c-12 -12 -8 -39 12 -85 12 -26 17 -55 14 -71 -5 -28 -23
-39 -23 -15 0 26 -60 97 -99 117 -43 21 -122 27 -164 11 -27 -11 -39 -33 -30
-57 5 -13 16 -15 67 -9 54 5 66 3 96 -17 48 -32 73 -82 65 -132 -3 -21 -2 -43
3 -50 21 -26 22 -78 3 -122 -15 -34 -30 -49 -65 -66 -47 -22 -59 -38 -50 -62
14 -37 84 -19 141 36 29 28 36 41 58 103 6 17 9 16 20 -15 8 -19 14 -51 14
-71 1 -39 16 -59 43 -59 52 0 41 137 -18 218 -48 66 -49 70 -26 95 28 29 47
104 38 149 -12 67 -72 129 -99 102z"/>
<path d="M8402 5626 c-77 -27 -161 -154 -165 -248 -2 -41 -1 -43 27 -43 27 0
30 5 51 67 26 84 69 138 121 157 119 42 235 -128 191 -279 -18 -59 -10 -90 23
-90 35 0 55 55 55 155 0 70 -5 100 -21 136 -59 126 -173 185 -282 145z"/>
<path d="M37 5619 c-35 -10 -37 -13 -37 -51 0 -34 3 -39 17 -33 123 47 252 12
326 -87 78 -105 58 -264 -42 -350 -50 -43 -54 -81 -10 -86 20 -2 37 8 72 42
209 209 76 560 -217 572 -39 2 -88 -2 -109 -7z"/>
<path d="M7839 5518 c-23 -46 -66 -118 -95 -160 -57 -82 -63 -98 -39 -118 29
-24 83 34 170 184 l29 50 20 -29 c12 -16 45 -57 74 -92 l52 -62 -1 -78 c0 -43
-4 -111 -8 -152 -9 -93 -35 -121 -110 -121 -73 0 -94 25 -121 143 -24 102 -40
128 -68 110 -25 -15 -26 -35 -2 -138 25 -108 50 -147 115 -176 55 -26 102 -24
163 7 81 40 94 72 103 268 l8 159 -53 61 c-55 63 -131 174 -141 207 -4 12 -16
19 -31 19 -20 0 -30 -13 -65 -82z"/>
<path d="M10195 5581 c-16 -10 -49 -39 -73 -65 -33 -35 -42 -54 -40 -74 5 -47
34 -39 98 28 49 51 60 68 60 96 0 39 -4 41 -45 15z"/>
<path d="M9947 5552 c-20 -22 -22 -63 -5 -80 16 -16 63 -15 75 1 21 26 21 46
2 71 -24 31 -49 33 -72 8z"/>
<path d="M493 5494 c-15 -24 -15 -29 -2 -53 18 -32 54 -39 80 -15 24 22 24 56
1 77 -27 25 -59 21 -79 -9z"/>
<path d="M6356 5508 c-9 -5 -16 -20 -16 -33 0 -42 60 -57 74 -18 15 38 -22 71
-58 51z"/>
<path d="M5982 5474 c-7 -12 -5 -31 5 -59 8 -25 13 -69 11 -105 l-3 -62 -115
-2 c-108 -1 -119 -3 -187 -35 -80 -37 -109 -62 -99 -86 11 -29 37 -28 99 4
164 83 340 57 465 -68 69 -69 104 -146 110 -241 5 -89 15 -112 45 -108 33 5
43 46 30 134 -15 104 -66 205 -138 273 -30 29 -55 57 -55 62 0 18 94 111 133
130 21 11 61 23 88 26 71 8 95 35 63 68 -13 12 -27 15 -58 10 -112 -17 -201
-70 -262 -155 -20 -28 -37 -50 -39 -50 -2 0 -3 44 -2 98 1 78 -2 105 -18 137
-22 44 -57 58 -73 29z"/>
<path d="M8446 5436 c-25 -39 -124 -132 -182 -172 l-52 -36 -25 -157 c-27
-166 -26 -203 8 -254 48 -74 169 -100 250 -54 33 18 48 38 87 117 53 106 58
143 17 148 -23 3 -29 -5 -68 -88 -47 -99 -77 -130 -125 -130 -39 0 -93 32
-108 65 -11 25 -5 93 23 251 10 58 13 62 68 102 31 23 72 58 91 77 l33 34 27
-82 c28 -86 72 -181 90 -192 6 -3 20 -3 31 0 26 9 23 33 -20 133 -17 40 -40
110 -52 155 -13 45 -27 88 -32 95 -15 20 -43 14 -61 -12z"/>
<path d="M6614 5417 c-12 -33 1 -50 49 -62 26 -7 58 -22 70 -34 25 -22 62 -28
72 -10 14 21 -6 60 -44 84 -48 32 -138 45 -147 22z"/>
<path d="M9785 5366 c-56 -25 -86 -62 -95 -116 -4 -29 -13 -38 -48 -55 -75
-36 -96 -93 -60 -165 30 -58 83 -93 239 -158 68 -28 189 -78 267 -112 79 -33
146 -60 148 -60 2 0 4 17 4 39 l0 38 -147 62 c-82 34 -203 86 -271 114 -69 29
-136 65 -153 81 -48 47 -35 96 27 96 57 0 64 7 64 67 0 47 4 59 29 84 40 39
109 41 164 4 20 -14 37 -30 37 -35 0 -17 46 -11 73 10 34 27 101 50 143 50 32
0 34 2 34 36 l0 37 -62 -5 c-36 -3 -83 -16 -109 -28 l-47 -23 -28 20 c-69 48
-135 54 -209 19z"/>
<path d="M0 5338 c0 -35 2 -40 20 -35 11 3 18 1 14 -4 -3 -5 1 -9 9 -9 23 0
85 -75 96 -117 11 -42 4 -90 -22 -140 -24 -45 -22 -51 28 -97 40 -37 45 -47
45 -85 0 -32 -6 -48 -26 -68 -24 -24 -30 -25 -95 -20 l-70 6 3 -37 c3 -36 5
-37 51 -46 97 -17 188 37 208 123 12 53 -1 104 -40 158 -29 40 -29 42 -15 89
21 72 18 115 -16 179 -39 74 -87 114 -162 136 -27 7 -28 7 -28 -33z"/>
<path d="M535 5306 c-25 -25 -25 -44 -2 -73 12 -16 59 -17 75 -1 20 20 14 65
-10 82 -30 21 -35 20 -63 -8z"/>
<path d="M6387 5313 c-12 -12 -7 -50 8 -63 19 -15 52 -4 60 21 4 11 1 26 -5
34 -13 15 -51 20 -63 8z"/>
<path d="M5447 5163 c-19 -18 -3 -54 41 -95 54 -51 87 -64 187 -73 67 -7 72
-9 110 -52 126 -141 145 -153 243 -153 57 0 109 -25 128 -62 21 -41 82 -107
116 -124 33 -17 116 -34 134 -27 37 14 14 73 -29 73 -50 1 -106 38 -141 93
-58 90 -92 110 -221 126 -87 10 -78 4 -157 110 -43 57 -88 80 -180 90 -86 10
-128 29 -158 71 -20 28 -57 40 -73 23z"/>
<path d="M480 5120 c-11 -11 -20 -26 -20 -33 0 -24 31 -57 55 -57 50 0 73 60
37 93 -25 22 -48 21 -72 -3z"/>
<path d="M358 4979 c-38 -22 -13 -99 32 -99 20 0 49 24 51 43 6 54 -38 83 -83
56z"/>
<path d="M4251 4850 c-96 -54 -181 -106 -190 -115 -19 -19 -5 -49 25 -52 10
-2 100 44 199 100 144 82 181 107 183 126 4 23 -11 41 -33 41 -5 0 -88 -45
-184 -100z"/>
<path d="M5039 4692 c-26 -12 -65 -46 -77 -69 -28 -51 -4 -165 37 -176 35 -9
46 17 32 73 -15 57 -6 82 39 105 37 19 43 30 30 55 -11 20 -32 24 -61 12z"/>
<path d="M5185 4656 c-52 -23 -85 -71 -85 -124 0 -53 27 -115 51 -120 9 -2 24
4 33 13 14 15 14 19 0 55 -21 52 -13 81 33 111 44 29 49 41 28 63 -19 19 -21
19 -60 2z"/>
<path d="M5332 4623 c-55 -27 -75 -58 -79 -121 -5 -66 22 -122 57 -122 28 0
35 23 20 74 -16 57 -6 85 35 102 34 14 48 35 39 58 -8 21 -39 25 -72 9z"/>
<path d="M9132 4468 c-37 -37 12 -113 57 -88 35 18 45 48 26 76 -17 26 -62 33
-83 12z"/>
<path d="M2875 4457 c-106 -36 -188 -106 -231 -200 -25 -54 -29 -73 -29 -152
1 -101 20 -157 79 -229 18 -23 38 -58 45 -78 25 -75 93 -98 173 -57 36 18 46
19 83 9 67 -19 143 10 173 66 8 14 22 21 53 22 86 6 137 54 124 119 -4 21 -7
71 -6 112 3 174 -73 303 -218 369 -67 31 -183 39 -246 19z m221 -89 c59 -27
113 -82 142 -146 21 -47 24 -64 20 -135 -4 -57 -1 -92 9 -116 19 -46 8 -55
-77 -59 -69 -4 -69 -4 -80 -38 -7 -19 -20 -39 -30 -44 -27 -15 -66 -12 -80 5
-18 22 -45 19 -89 -10 -21 -14 -51 -27 -66 -28 -26 -2 -30 2 -39 40 -6 23 -25
57 -43 75 -95 98 -103 261 -18 372 33 43 108 92 160 105 53 13 140 4 191 -21z"/>
<path d="M2875 4331 c-78 -36 -135 -120 -135 -199 0 -45 19 -67 50 -57 14 5
20 15 20 38 0 38 30 106 56 128 29 25 84 40 120 33 26 -5 34 -2 44 16 29 54
-70 80 -155 41z"/>
<path d="M9338 4438 c-16 -13 -22 -29 -19 -55 0 -7 12 -20 26 -29 23 -15 27
-15 50 0 27 18 34 63 13 84 -16 16 -50 15 -70 0z"/>
<path d="M8937 4422 c-33 -36 -8 -92 40 -92 25 0 53 30 53 57 0 46 -62 69 -93
35z"/>
<path d="M4887 4400 c-186 -32 -248 -171 -128 -290 147 -145 460 -202 633
-114 58 29 88 74 88 130 0 165 -331 318 -593 274z m248 -85 c128 -33 239 -102
265 -165 15 -37 -3 -71 -53 -97 -30 -15 -197 -33 -197 -20 0 2 47 24 105 48
107 44 130 64 105 94 -7 8 -18 15 -25 15 -6 0 -82 -30 -169 -66 -122 -51 -164
-64 -187 -59 -16 4 -29 10 -29 14 0 4 60 31 133 60 131 53 171 79 161 106 -12
30 -44 23 -216 -47 -126 -51 -181 -69 -189 -61 -7 7 20 23 93 53 123 52 145
69 129 99 -7 11 -18 21 -25 21 -8 0 -67 -22 -131 -50 -64 -27 -121 -50 -126
-50 -10 0 -12 31 -2 55 3 10 29 28 57 41 42 20 67 24 146 24 54 0 122 -7 155
-15z"/>
<path d="M490 4337 c-140 -36 -150 -40 -150 -67 0 -38 30 -40 159 -9 67 16
126 27 131 24 6 -3 68 -75 139 -160 l130 -154 -54 -26 c-57 -26 -115 -42 -115
-31 0 4 18 26 41 51 30 33 39 49 34 65 -10 33 -49 25 -91 -20 -47 -50 -63 -77
-64 -111 -1 -121 248 -52 432 120 80 75 100 120 69 161 -27 37 -87 38 -173 5
-70 -27 -91 -53 -68 -80 16 -20 33 -19 78 4 52 26 92 34 92 19 0 -17 -101
-109 -115 -106 -7 2 -77 80 -157 173 -109 129 -150 170 -168 172 -14 0 -81
-13 -150 -30z"/>
<path d="M9506 4334 c-41 -40 7 -109 59 -86 14 6 27 23 31 37 13 50 -53 86
-90 49z"/>
<path d="M1028 4315 c-76 -19 -183 -69 -191 -88 -3 -8 0 -23 8 -34 13 -17 15
-17 62 0 173 66 257 79 345 53 63 -18 93 -50 132 -139 44 -100 56 -199 35
-299 -65 -309 -437 -451 -687 -263 -57 43 -135 133 -126 146 2 3 29 7 61 8
159 5 388 110 520 238 105 102 153 213 96 221 -17 3 -29 -9 -58 -55 -21 -32
-53 -75 -74 -96 -120 -128 -359 -237 -514 -237 -76 0 -84 8 -69 67 18 66 56
128 120 195 59 62 68 100 24 106 -46 7 -184 -166 -211 -265 -27 -97 1 -191 89
-297 169 -204 458 -250 677 -107 110 72 181 168 218 296 25 84 17 246 -17 335
-38 102 -93 179 -147 203 -59 27 -211 33 -293 12z"/>
<path d="M8770 4310 c-24 -24 -25 -38 -4 -68 28 -41 94 -22 94 28 0 55 -52 78
-90 40z"/>
<path d="M9065 4286 c-112 -35 -225 -140 -266 -247 -20 -52 -24 -82 -24 -164
0 -94 2 -105 34 -170 128 -261 465 -324 671 -125 226 218 145 588 -153 699
-67 24 -195 28 -262 7z m260 -86 c146 -63 232 -223 204 -378 -49 -267 -371
-375 -572 -192 -77 70 -111 149 -111 255 0 61 5 92 22 129 45 99 122 168 225
202 57 19 169 11 232 -16z"/>
<path d="M7005 4250 c-46 -24 -117 -91 -147 -138 -20 -32 -20 -33 -2 -55 43
-50 129 -97 221 -121 70 -18 225 -21 271 -5 36 12 42 30 32 96 -16 99 -59 164
-137 210 -63 37 -179 43 -238 13z m192 -74 c58 -27 100 -86 105 -146 l3 -35
-63 -3 c-84 -4 -154 11 -241 53 -81 39 -82 47 -19 100 71 60 133 69 215 31z"/>
<path d="M9637 4182 c-20 -22 -22 -63 -5 -80 7 -7 24 -12 38 -12 14 0 31 5 38
12 20 20 14 65 -10 82 -29 21 -41 20 -61 -2z"/>
<path d="M6677 4179 c-51 -12 -127 -52 -154 -81 -11 -12 -27 -42 -33 -64 -52
-176 259 -390 653 -448 185 -28 309 -17 417 37 85 42 113 82 108 153 -5 58
-34 105 -62 101 -33 -4 -41 -30 -23 -70 24 -49 22 -61 -17 -95 -52 -45 -130
-64 -266 -63 -182 0 -356 43 -523 128 -184 95 -261 207 -189 275 34 33 68 47
156 62 75 12 100 32 77 60 -15 18 -80 20 -144 5z"/>
<path d="M8651 4146 c-35 -42 20 -111 63 -82 35 23 41 42 23 70 -20 29 -66 36
-86 12z"/>
<path d="M7625 4136 c-115 -37 -238 -150 -219 -200 9 -25 47 -29 152 -20 54 5
129 8 167 9 69 0 70 0 73 27 5 42 -30 51 -165 44 -62 -4 -113 -5 -113 -2 0 10
79 53 135 72 55 19 60 23 60 50 0 24 -5 29 -25 31 -14 1 -43 -4 -65 -11z"/>
<path d="M4672 4118 c-17 -17 -15 -147 3 -199 60 -168 230 -278 413 -267 100
7 178 37 242 95 80 72 133 181 106 219 -14 19 -46 16 -56 -6 -65 -140 -87
-166 -177 -207 -125 -58 -269 -32 -377 67 -64 59 -91 120 -92 211 0 41 -4 81
-8 87 -9 15 -39 15 -54 0z"/>
<path d="M6779 4014 c-46 -56 147 -180 335 -214 86 -16 227 -8 261 14 14 9 25
25 25 36 0 32 -27 39 -89 23 -127 -34 -355 27 -454 121 -42 40 -58 44 -78 20z"/>
<path d="M9702 3994 c-49 -34 -6 -123 47 -94 43 23 45 77 2 99 -25 14 -22 14
-49 -5z"/>
<path d="M8612 3954 c-50 -35 -5 -108 52 -83 34 16 44 53 21 79 -22 24 -43 25
-73 4z"/>
<path d="M3240 3805 c-6 -8 -18 -56 -25 -107 -28 -195 -36 -242 -38 -245 -3
-2 -139 142 -207 220 -38 44 -83 49 -88 10 -3 -17 34 -62 149 -188 84 -91 160
-165 170 -165 34 0 31 -10 80 317 17 115 19 146 9 158 -16 19 -34 19 -50 0z"/>
<path d="M9675 3776 c-19 -28 -9 -58 26 -76 45 -25 94 51 57 88 -21 21 -66 14
-83 -12z"/>
<path d="M8632 3758 c-22 -29 -23 -57 -3 -77 12 -12 29 -21 39 -21 46 0 71 79
33 100 -26 14 -56 13 -69 -2z"/>
<path d="M4651 3696 c-42 -42 -52 -58 -46 -75 10 -33 43 -25 101 25 54 45 65
69 42 92 -22 22 -43 13 -97 -42z"/>
<path d="M5200 3624 c-11 -13 -9 -27 16 -87 25 -61 33 -72 53 -72 43 0 47 26
17 96 -35 80 -58 98 -86 63z"/>
<path d="M9596 3604 c-41 -40 7 -109 59 -86 14 6 27 23 31 37 13 50 -53 86
-90 49z"/>
<path d="M8720 3571 c-23 -43 1 -81 51 -81 38 0 58 37 41 75 -15 32 -75 36
-92 6z"/>
<path d="M9452 3468 c-7 -7 -12 -26 -12 -44 0 -26 6 -34 30 -44 26 -11 33 -10
49 4 26 24 31 51 14 75 -16 23 -62 28 -81 9z"/>
<path d="M8875 3440 c-35 -38 6 -96 58 -82 28 7 43 46 29 77 -14 31 -61 34
-87 5z"/>
<path d="M9070 3380 c-25 -25 -26 -52 -2 -73 24 -22 55 -21 75 1 23 26 21 58
-5 76 -30 21 -44 20 -68 -4z"/>
<path d="M9266 3384 c-32 -32 -9 -86 37 -86 37 0 57 19 57 53 0 45 -61 67 -94
33z"/>
<path d="M4022 3254 c-24 -17 -30 -62 -10 -82 37 -37 113 12 88 57 -9 17 -39
41 -52 41 -2 0 -14 -7 -26 -16z"/>
<path d="M4211 3246 c-19 -23 -9 -69 17 -82 32 -16 57 -7 71 23 9 20 9 30 -4
49 -18 27 -65 33 -84 10z"/>
<path d="M1894 3226 c-45 -20 -102 -74 -124 -116 -10 -20 -24 -67 -30 -104
-11 -60 -15 -67 -39 -71 -14 -3 -46 -16 -70 -28 -108 -54 -123 -228 -29 -329
22 -22 25 -33 21 -75 -10 -96 60 -175 179 -203 55 -14 178 -8 240 10 43 12 59
44 34 68 -13 13 -21 14 -55 3 -23 -6 -69 -14 -103 -17 -141 -13 -271 86 -213
162 22 29 18 41 -29 87 -75 72 -86 170 -25 221 25 21 41 26 89 26 68 0 70 3
70 93 0 200 183 284 317 147 21 -22 54 -72 73 -112 l36 -73 46 0 c53 0 82 -20
98 -70 38 -115 -17 -257 -135 -347 -44 -34 -55 -48 -53 -68 2 -18 10 -26 28
-28 30 -3 132 83 180 152 37 54 70 153 70 209 0 118 -78 227 -162 227 -18 0
-29 12 -51 54 -44 84 -94 135 -161 167 -68 32 -148 38 -202 15z"/>
<path d="M3832 3184 c-41 -28 -19 -94 32 -94 26 0 56 29 56 53 0 20 -34 57
-53 57 -7 0 -23 -7 -35 -16z"/>
<path d="M4400 3170 c-11 -11 -20 -27 -20 -35 0 -21 36 -55 59 -55 27 0 51 26
51 55 0 51 -54 71 -90 35z"/>
<path d="M5946 3120 c-33 -10 -106 -42 -162 -71 -108 -54 -130 -77 -100 -107
14 -14 26 -11 133 40 144 68 145 69 212 77 60 7 84 28 65 59 -16 24 -77 25
-148 2z"/>
<path d="M6130 3110 c-25 -16 -20 -128 8 -167 74 -104 229 -107 297 -5 50 76
-5 118 -60 46 -37 -49 -69 -59 -121 -39 -49 19 -63 42 -66 115 -3 46 -6 55
-23 58 -11 1 -27 -2 -35 -8z"/>
<path d="M4092 3088 c-230 -26 -401 -250 -363 -475 33 -187 164 -320 349 -353
223 -40 451 125 480 347 25 191 -67 367 -233 444 -76 36 -146 47 -233 37z
m191 -96 c65 -29 138 -100 173 -169 26 -51 29 -68 29 -148 0 -76 -4 -99 -26
-146 -33 -69 -91 -129 -161 -166 -47 -25 -64 -28 -148 -28 -88 0 -101 3 -162
33 -71 35 -117 81 -159 162 -20 38 -24 59 -24 140 0 82 4 102 26 150 42 86
113 150 202 182 68 24 182 19 250 -10z"/>
<path d="M7622 3078 c-6 -7 -16 -50 -23 -95 -14 -96 -1 -219 33 -311 111 -296
413 -472 718 -418 199 35 381 172 471 353 28 56 43 100 43 127 1 39 -1 41 -28
41 -26 0 -30 -6 -50 -61 -120 -331 -476 -485 -789 -341 -151 69 -269 214 -312
382 -16 65 -20 222 -6 271 5 18 5 37 -1 47 -11 20 -41 22 -56 5z"/>
<path d="M3672 3048 c-21 -21 -14 -66 12 -83 53 -35 115 34 70 79 -18 19 -65
21 -82 4z"/>
<path d="M4546 3034 c-23 -22 -20 -60 6 -78 30 -21 44 -20 68 4 36 36 16 90
-35 90 -13 0 -31 -7 -39 -16z"/>
<path d="M7730 2994 c-17 -52 -8 -226 15 -284 48 -120 146 -230 254 -285 111
-56 256 -71 376 -39 118 30 246 122 309 222 31 50 33 68 7 82 -27 14 -42 5
-71 -42 -14 -22 -47 -60 -75 -85 -191 -173 -470 -160 -641 30 -54 60 -79 106
-99 184 -16 60 -21 173 -7 173 4 0 66 -16 137 -34 253 -66 551 -145 647 -170
114 -31 135 -32 143 -7 12 38 -5 48 -133 81 -70 18 -199 52 -287 75 -432 114
-515 135 -538 135 -20 0 -28 -7 -37 -36z"/>
<path d="M0 2950 c0 -39 1 -40 38 -40 78 -1 224 -41 413 -115 54 -21 79 -15
79 19 0 27 -15 36 -156 89 -95 36 -235 71 -321 81 l-53 5 0 -39z"/>
<path d="M10114 2975 c-91 -16 -183 -65 -236 -124 -50 -57 -106 -170 -114
-233 -8 -55 -11 -56 -124 -46 -79 7 -100 0 -100 -33 0 -29 31 -39 145 -46 96
-5 108 -8 125 -30 35 -45 151 -133 218 -164 50 -24 85 -33 139 -37 l73 -5 0
35 0 35 -61 6 c-76 7 -182 57 -254 121 l-50 44 30 6 c87 19 227 57 278 76 56
21 57 22 57 62 0 34 -3 39 -17 33 -112 -46 -377 -115 -390 -101 -8 8 28 120
52 161 61 106 182 175 307 175 l48 0 0 40 c0 37 -2 40 -27 39 -16 0 -60 -7
-99 -14z"/>
<path d="M6476 2964 c-22 -21 -21 -24 23 -72 40 -42 67 -93 126 -231 35 -84
54 -102 80 -81 26 21 14 64 -53 203 -43 88 -72 133 -101 160 -46 42 -53 44
-75 21z"/>
<path d="M5610 2945 c-10 -12 -8 -25 10 -68 37 -86 92 -192 104 -199 10 -7 27
-4 64 10 8 2 0 -28 -19 -79 -60 -162 -77 -216 -69 -229 7 -11 54 -29 444 -172
156 -57 170 -60 181 -44 7 9 35 77 61 151 27 74 52 135 55 135 3 0 11 -11 17
-25 7 -15 20 -25 32 -25 23 0 229 87 249 105 15 14 7 50 -13 58 -7 3 -55 -13
-106 -34 -51 -21 -97 -39 -101 -39 -5 0 -16 17 -24 37 -14 33 -14 42 -1 80 16
47 13 68 -10 77 -37 14 -40 8 -148 -289 -26 -72 -51 -136 -55 -143 -6 -10 -66
8 -247 74 -131 48 -242 90 -246 94 -5 3 3 35 17 70 92 246 134 370 129 383 -8
22 -34 29 -51 15 -8 -6 -22 -29 -30 -50 -11 -27 -27 -45 -54 -59 l-39 -19 -50
100 c-51 103 -71 119 -100 85z"/>
<path d="M3599 2877 c-27 -14 -38 -60 -18 -83 34 -41 115 8 89 55 -16 32 -42
42 -71 28z"/>
<path d="M4630 2851 c-17 -32 -12 -60 15 -77 50 -32 103 22 70 72 -20 30 -70
33 -85 5z"/>
<path d="M7908 2819 c-22 -12 -23 -32 -2 -50 13 -11 21 -7 52 24 l37 37 -35 0
c-19 0 -43 -5 -52 -11z"/>
<path d="M1937 2783 c-14 -13 -6 -45 24 -104 17 -34 28 -63 26 -65 -6 -7 -54
13 -62 25 -9 16 -31 13 -49 -5 -34 -33 37 -94 111 -94 l41 0 81 -166 c71 -145
83 -165 102 -162 46 7 44 28 -11 146 -48 102 -52 114 -38 130 32 35 48 82 48
137 0 64 -13 95 -38 95 -31 0 -41 -20 -35 -69 3 -29 0 -59 -9 -81 l-14 -34
-61 127 c-54 110 -65 127 -86 127 -13 0 -27 -3 -30 -7z"/>
<path d="M67 2714 c-66 -34 -67 -35 -67 -74 l0 -40 53 24 c105 47 127 60 133
78 7 23 -12 48 -35 47 -9 0 -46 -16 -84 -35z"/>
<path d="M8031 2723 c-23 -20 -30 -33 -26 -45 12 -31 45 -21 61 17 26 63 17
70 -35 28z"/>
<path d="M425 2733 c-6 -5 -30 -42 -54 -84 -90 -160 -228 -285 -344 -313 -23
-5 -27 -11 -27 -42 l0 -36 38 6 c59 11 152 61 214 115 98 88 233 287 226 333
-3 24 -34 35 -53 21z"/>
<path d="M8430 2696 c0 -41 18 -76 39 -76 41 0 33 47 -15 83 -24 18 -24 18
-24 -7z"/>
<path d="M8160 2669 c-20 -37 -21 -42 -7 -56 27 -27 47 -9 47 41 0 25 -4 47
-8 50 -5 3 -19 -13 -32 -35z"/>
<path d="M3565 2666 c-36 -36 -15 -86 35 -86 28 0 42 11 53 43 7 19 -31 67
-53 67 -6 0 -22 -11 -35 -24z"/>
<path d="M8300 2666 c-22 -60 -7 -94 33 -74 21 11 17 45 -8 81 -14 20 -14 20
-25 -7z"/>
<path d="M4643 2644 c-15 -24 -15 -29 -2 -53 18 -32 54 -39 80 -15 24 22 24
56 1 77 -27 25 -59 21 -79 -9z"/>
<path d="M3618 2479 c-27 -15 -23 -65 6 -84 50 -33 104 20 72 70 -17 26 -48
32 -78 14z"/>
<path d="M4604 2472 c-6 -4 -16 -17 -23 -30 -10 -19 -10 -28 4 -48 28 -43 95
-25 95 26 0 41 -46 72 -76 52z"/>
<path d="M3738 2318 c-31 -24 -27 -74 7 -90 41 -18 75 3 75 46 0 49 -45 72
-82 44z"/>
<path d="M4466 2298 c-21 -29 -20 -51 2 -71 24 -22 55 -21 75 1 22 24 21 55
-1 75 -26 23 -58 21 -76 -5z"/>
<path d="M2237 2198 c-88 -42 -110 -65 -87 -93 18 -22 32 -19 125 27 69 34 85
47 85 65 0 44 -30 44 -123 1z"/>
<path d="M3902 2208 c-10 -13 -15 -34 -13 -55 0 -7 12 -20 26 -29 23 -15 27
-15 50 0 27 18 34 63 13 84 -16 16 -63 15 -76 0z"/>
<path d="M4302 2204 c-41 -29 -19 -94 33 -94 23 0 55 32 55 55 0 38 -55 62
-88 39z"/>
<path d="M4095 2160 c-23 -25 -13 -67 20 -82 53 -24 100 46 57 85 -25 23 -55
21 -77 -3z"/>
<path d="M2996 2008 c-21 -30 -20 -44 4 -68 36 -36 90 -16 90 35 0 52 -65 74
-94 33z"/>
<path d="M3197 2012 c-22 -24 -21 -55 1 -75 26 -23 58 -21 76 5 21 29 20 51
-2 71 -24 22 -55 21 -75 -1z"/>
<path d="M7288 1980 c-97 -29 -147 -98 -188 -257 -13 -53 -33 -73 -73 -73 -18
0 -119 21 -225 47 -212 52 -219 52 -235 -8 -14 -52 -2 -227 19 -281 36 -94
121 -192 210 -244 18 -10 18 -15 4 -75 -7 -35 -14 -80 -14 -99 -1 -32 1 -35
29 -35 29 0 30 2 49 80 10 44 20 81 21 82 1 2 33 -4 71 -12 234 -50 435 40
530 238 44 92 52 133 30 155 -24 25 -45 6 -70 -63 -74 -204 -246 -303 -452
-261 -218 44 -350 184 -361 380 -2 45 -1 86 4 93 6 8 58 -1 193 -33 214 -51
246 -51 296 2 21 22 37 55 49 101 32 120 58 159 129 188 32 14 46 14 88 5 88
-22 139 -105 123 -202 -12 -69 -22 -88 -46 -85 -12 1 -26 -6 -33 -15 -20 -32
5 -51 100 -75 107 -27 142 -29 151 -7 10 28 -11 48 -66 63 l-53 14 9 36 c16
71 9 183 -15 228 -49 93 -172 144 -274 113z"/>
<path d="M700 1971 c-75 -23 -146 -85 -182 -160 -16 -33 -23 -67 -25 -121 l-2
-75 -46 -21 c-77 -36 -96 -63 -79 -109 4 -9 25 -25 47 -37 62 -31 162 -22 246
22 67 36 95 67 85 93 -10 28 -31 26 -86 -8 -60 -39 -142 -61 -184 -51 -26 7
-26 8 27 32 34 16 65 24 84 21 37 -6 65 8 65 31 0 26 -20 42 -51 42 -32 0 -43
31 -33 88 15 82 58 137 134 171 137 62 299 -37 301 -184 1 -66 -16 -121 -55
-173 -62 -86 -39 -117 69 -93 124 28 275 173 275 264 0 63 -59 54 -78 -11 -7
-21 -28 -55 -48 -76 -40 -41 -112 -92 -119 -84 -3 3 2 24 10 48 8 24 16 64 17
89 2 43 6 49 43 73 103 68 145 82 237 83 96 0 122 -12 166 -76 20 -29 23 -44
20 -99 -4 -84 -47 -175 -87 -185 -46 -12 -87 -52 -125 -124 -41 -78 -53 -87
-136 -107 -32 -7 -79 -27 -106 -43 -57 -36 -147 -56 -199 -47 -48 9 -109 65
-123 114 -21 69 -15 141 14 183 14 21 24 46 22 56 -6 34 -38 25 -94 -26 -57
-52 -125 -81 -190 -81 -41 0 -58 -35 -28 -58 20 -15 98 -12 144 6 38 14 42 11
46 -35 5 -64 42 -140 86 -177 49 -42 110 -60 188 -54 33 2 60 3 60 1 0 -20
-44 -60 -89 -82 -44 -21 -57 -32 -59 -52 -4 -35 17 -42 71 -23 65 22 114 68
152 144 37 74 57 88 154 110 67 16 117 58 147 125 30 69 61 94 136 111 80 18
119 42 158 96 39 53 38 92 -2 96 -21 3 -30 -3 -42 -26 -8 -15 -23 -35 -32 -43
-16 -13 -17 -12 -10 6 4 11 12 46 18 78 34 192 -124 329 -325 283 -75 -17
-149 -48 -186 -77 -31 -25 -48 -24 -55 4 -10 40 -65 95 -128 126 -51 26 -72
31 -127 30 -36 0 -77 -4 -91 -8z"/>
<path d="M9070 1961 c-194 -62 -346 -218 -396 -405 -18 -68 -18 -218 1 -290
47 -179 191 -334 368 -396 86 -30 231 -38 316 -16 112 29 187 72 271 155 85
84 128 159 156 271 22 86 14 231 -16 317 -62 178 -216 321 -396 368 -80 21
-233 19 -304 -4z m339 -85 c166 -66 283 -214 312 -393 53 -323 -245 -618 -568
-564 -332 57 -518 411 -372 709 61 124 186 228 318 264 92 25 223 18 310 -16z"/>
<path d="M9139 1830 c-60 -10 -120 -42 -152 -80 -14 -16 -31 -30 -38 -30 -26
0 -79 -53 -104 -104 -21 -43 -26 -66 -24 -108 2 -29 0 -60 -6 -68 -5 -8 -8
-42 -8 -76 1 -76 37 -161 82 -195 17 -12 31 -30 31 -39 0 -24 52 -75 101 -101
28 -15 67 -24 109 -26 36 -3 94 -7 130 -9 85 -7 168 22 208 72 15 19 32 34 39
34 21 0 83 61 105 104 22 42 30 108 32 261 0 90 -20 143 -71 186 -16 13 -35
39 -42 57 -9 21 -34 47 -66 69 -47 30 -64 35 -151 44 -54 5 -105 11 -113 13
-9 2 -37 0 -62 -4z m91 -78 c0 -20 -30 -236 -34 -239 -2 -2 -16 13 -32 34 -15
21 -51 64 -78 97 l-51 58 24 17 c13 9 38 21 55 28 36 13 116 17 116 5z m165
-21 c43 -19 79 -54 74 -69 -6 -16 -180 -155 -186 -148 -6 5 13 185 23 219 7
22 38 22 89 -2z m-340 -166 c39 -46 71 -88 73 -93 1 -5 -25 -5 -60 -1 -35 4
-89 11 -120 14 -49 5 -58 10 -58 26 0 47 56 139 85 139 6 0 42 -38 80 -85z
m495 -6 c12 -22 24 -62 27 -89 5 -41 3 -51 -11 -56 -21 -8 -238 16 -234 26 4
10 181 158 190 159 4 1 17 -17 28 -40z m-457 -165 c20 -4 37 -9 36 -13 -1 -8
-181 -150 -194 -152 -19 -4 -47 61 -52 123 l-6 61 89 -6 c49 -4 106 -10 127
-13z m365 -50 c45 -4 90 -12 99 -19 16 -12 16 -15 -1 -58 -20 -53 -52 -97 -70
-97 -12 0 -156 170 -156 185 0 4 10 5 23 2 12 -4 59 -9 105 -13z m-296 -146
c-7 -62 -17 -117 -22 -121 -20 -22 -150 45 -150 77 0 13 165 156 179 156 4 0
1 -51 -7 -112z m183 13 l78 -94 -24 -18 c-27 -20 -93 -39 -138 -39 -23 0 -31
5 -31 17 0 45 25 233 31 231 3 -2 41 -45 84 -97z"/>
<path d="M4878 1918 c-48 -22 -90 -48 -93 -56 -3 -9 3 -24 14 -35 19 -19 20
-19 115 26 75 36 96 50 96 66 0 16 -26 42 -42 41 -2 0 -42 -19 -90 -42z"/>
<path d="M2832 1934 c-24 -17 -30 -62 -10 -82 21 -21 66 -14 83 12 17 25 11
53 -14 73 -21 16 -32 16 -59 -3z"/>
<path d="M3382 1934 c-24 -17 -30 -62 -10 -82 16 -16 63 -15 75 1 23 29 23 48
-2 73 -28 28 -33 29 -63 8z"/>
<path d="M3022 1861 c-98 -34 -177 -120 -208 -229 -29 -97 -1 -242 45 -242 33
0 44 25 30 67 -76 229 162 431 373 316 50 -27 99 -82 120 -133 6 -14 13 -50
17 -80 6 -53 7 -55 36 -55 29 0 30 2 33 51 7 119 -90 257 -211 302 -72 27
-162 28 -235 3z"/>
<path d="M729 1847 c-90 -60 -88 -181 4 -237 41 -25 88 -25 137 0 95 49 94
197 -3 243 -48 23 -98 21 -138 -6z m115 -68 c29 -23 33 -54 10 -87 -21 -31
-43 -29 -36 4 7 40 -32 58 -62 28 -15 -14 -16 -13 -16 10 0 30 32 66 59 66 10
0 30 -9 45 -21z"/>
<path d="M7313 1845 c-57 -25 -81 -107 -46 -165 20 -35 52 -50 104 -50 57 0
109 51 109 105 0 49 -32 100 -72 114 -40 14 -56 13 -95 -4z m84 -81 c2 -7 -4
-11 -14 -10 -13 1 -19 -7 -21 -26 -4 -35 -19 -36 -34 -3 -8 19 -8 28 2 40 15
18 61 17 67 -1z"/>
<path d="M4884 1805 c-24 -37 -63 -159 -75 -239 -6 -39 -9 -111 -6 -159 5 -98
19 -124 57 -112 22 7 22 11 16 84 -7 86 5 198 30 281 l16 54 21 -29 c39 -55
116 -132 151 -150 29 -16 37 -17 50 -6 26 22 18 44 -29 81 -49 38 -128 135
-153 188 -19 40 -54 43 -78 7z"/>
<path d="M2695 1766 c-29 -44 18 -96 66 -73 27 14 38 60 18 83 -19 23 -66 17
-84 -10z"/>
<path d="M3495 1774 c-24 -24 -15 -66 17 -82 35 -16 65 -2 74 34 13 50 -54 85
-91 48z"/>
<path d="M5255 1591 c-197 -89 -137 -381 78 -381 137 0 231 125 192 256 -34
115 -162 174 -270 125z m132 -70 c92 -42 100 -160 14 -218 -56 -38 -125 -25
-170 33 -46 59 -13 166 59 191 46 16 48 16 97 -6z"/>
<path d="M2656 1584 c-37 -37 -5 -91 51 -85 19 2 43 31 43 51 0 26 -27 50 -55
50 -13 0 -31 -7 -39 -16z"/>
<path d="M3541 1586 c-18 -21 -9 -66 14 -82 29 -19 69 2 73 39 4 36 -13 57
-48 57 -15 0 -33 -6 -39 -14z"/>
<path d="M6745 1586 c-51 -37 55 -229 155 -281 149 -77 310 5 310 157 0 76
-38 119 -73 84 -12 -13 -13 -23 -6 -51 20 -71 -19 -133 -89 -142 -101 -14
-206 75 -236 199 -8 36 -37 52 -61 34z"/>
<path d="M3120 1561 c-46 -14 -105 -49 -132 -78 -32 -34 -65 -104 -74 -159 -5
-35 -11 -42 -41 -53 -76 -28 -142 -115 -143 -189 0 -41 21 -91 49 -116 19 -17
21 -26 15 -82 -7 -63 -6 -64 29 -99 32 -32 40 -35 91 -35 31 0 73 7 92 15 61
25 527 318 571 358 50 46 78 112 70 163 -15 89 -96 150 -191 142 -51 -4 -52
-4 -76 34 -51 81 -170 126 -260 99z m140 -86 c33 -17 66 -57 86 -104 13 -30
17 -33 46 -27 113 21 138 15 171 -41 18 -31 18 -33 -1 -76 -11 -24 -35 -55
-53 -68 -83 -60 -518 -321 -551 -331 -78 -23 -116 15 -79 78 29 48 27 61 -14
85 -43 26 -55 46 -55 94 0 66 64 125 134 125 32 0 43 21 45 90 3 109 84 190
189 190 29 0 66 -7 82 -15z"/>
<path d="M2696 1394 c-37 -37 -1 -103 49 -90 14 4 31 17 37 31 23 52 -46 100
-86 59z"/>
<path d="M4830 1258 c-65 -35 -103 -101 -103 -176 0 -63 16 -103 60 -144 86
-82 215 -74 291 18 57 69 64 142 21 226 -45 88 -176 125 -269 76z m157 -68
c50 -30 66 -62 61 -120 -6 -60 -34 -95 -87 -110 -143 -39 -225 153 -98 230 41
25 83 25 124 0z"/>
<path d="M6927 1063 c-11 -20 -28 -115 -23 -129 4 -10 16 -14 33 -12 25 3 30
9 42 59 8 31 11 63 8 72 -6 17 -52 24 -60 10z"/>
<path d="M3970 580 c-11 -11 -20 -26 -20 -33 0 -24 31 -57 55 -57 50 0 73 60
37 93 -25 22 -48 21 -72 -3z"/>
<path d="M10160 580 c-46 -46 2 -108 64 -84 24 9 22 80 -3 94 -28 14 -38 13
-61 -10z"/>
<path d="M114 555 c-33 -50 20 -104 71 -71 30 20 33 56 7 79 -27 24 -59 21
-78 -8z"/>
<path d="M4164 555 c-21 -33 -6 -72 31 -81 52 -13 86 53 47 89 -27 24 -59 21
-78 -8z"/>
<path d="M2 545 c0 -16 2 -22 5 -12 2 9 2 23 0 30 -3 6 -5 -1 -5 -18z"/>
<path d="M5797 553 c-16 -15 -2 -61 90 -300 l96 -253 39 0 c33 0 38 3 34 18
-3 10 -42 110 -85 222 -44 113 -78 206 -76 208 1 2 44 -16 94 -38 103 -47 134
-49 139 -9 3 25 -5 30 -146 93 -146 65 -172 73 -185 59z"/>
<path d="M3772 528 c-21 -21 -14 -66 12 -83 53 -35 115 34 70 79 -18 19 -65
21 -82 4z"/>
<path d="M9966 524 c-41 -40 7 -109 59 -86 14 6 27 23 31 37 13 50 -53 86 -90
49z"/>
<path d="M7952 514 c-27 -18 -29 -55 -4 -77 24 -22 55 -21 75 1 22 25 21 48
-3 72 -24 24 -38 25 -68 4z"/>
<path d="M1743 494 c-100 -37 -187 -179 -181 -298 3 -60 3 -61 33 -61 30 0 30
1 37 68 11 116 70 202 157 228 48 14 80 7 120 -27 39 -32 64 -114 59 -191 -2
-45 0 -58 15 -67 12 -8 22 -8 35 0 14 10 17 26 17 105 -1 82 -4 101 -28 146
-50 97 -158 136 -264 97z"/>
<path d="M8102 488 c-7 -7 -12 -24 -12 -38 0 -33 17 -50 50 -50 33 0 50 17 50
50 0 33 -17 50 -50 50 -14 0 -31 -5 -38 -12z"/>
<path d="M296 474 c-22 -21 -20 -50 4 -74 24 -24 38 -25 68 -4 41 29 19 94
-33 94 -13 0 -31 -7 -39 -16z"/>
<path d="M4345 470 c-41 -46 29 -116 75 -75 24 22 26 58 4 79 -21 22 -57 20
-79 -4z"/>
<path d="M7808 459 c-12 -6 -18 -22 -18 -45 0 -43 34 -64 75 -46 20 9 25 19
25 46 0 48 -40 70 -82 45z"/>
<path d="M0 388 c0 -34 0 -35 61 -46 33 -6 81 -21 105 -32 94 -46 173 -155
189 -263 7 -46 8 -47 43 -47 l35 0 -6 57 c-8 80 -64 188 -127 247 -64 60 -157
104 -238 112 l-62 7 0 -35z"/>
<path d="M3616 404 c-41 -40 4 -105 57 -85 16 6 29 21 33 36 13 50 -53 86 -90
49z"/>
<path d="M3940 405 c-161 -50 -283 -192 -297 -344 l-6 -61 35 0 c35 0 36 1 42
48 15 115 106 231 213 273 41 16 81 22 133 23 66 1 84 -3 142 -32 112 -55 198
-176 198 -277 0 -34 1 -35 41 -35 l41 0 -7 48 c-25 169 -137 304 -292 352 -76
23 -177 25 -243 5z"/>
<path d="M9807 402 c-33 -36 -8 -92 40 -92 25 0 53 30 53 57 0 46 -62 69 -93
35z"/>
<path d="M10140 406 c-144 -40 -257 -155 -295 -301 -24 -92 -21 -105 19 -105
36 0 46 12 46 59 0 41 54 142 102 189 47 47 106 77 178 93 48 10 50 12 50 45
0 31 -3 34 -27 33 -16 0 -48 -6 -73 -13z"/>
<path d="M8227 392 c-33 -37 -11 -92 37 -92 26 0 56 29 56 53 0 23 -35 57 -58
57 -11 0 -26 -8 -35 -18z"/>
<path d="M7955 367 c-57 -23 -77 -39 -106 -85 -23 -37 -29 -57 -29 -103 0 -70
9 -96 50 -143 l32 -36 118 0 118 0 35 39 c84 93 66 230 -39 304 -47 33 -131
44 -179 24z m156 -106 c33 -33 39 -45 39 -82 0 -56 -30 -106 -75 -125 -46 -19
-73 -18 -114 4 -80 43 -93 149 -27 209 31 28 43 33 87 33 46 0 55 -4 90 -39z"/>
<path d="M6160 359 c-37 -15 -68 -48 -80 -84 -8 -25 -18 -34 -40 -39 -24 -4
-30 -11 -30 -30 0 -26 25 -47 47 -39 7 3 28 -11 46 -30 62 -66 155 -68 215 -3
17 20 32 44 32 55 0 23 -3 22 221 56 91 13 173 27 182 31 22 8 22 53 1 61 -9
3 -104 -7 -210 -22 l-193 -28 -29 31 c-46 49 -104 64 -162 41z m94 -80 c32
-25 35 -70 6 -99 -55 -55 -141 11 -105 80 13 26 29 35 61 39 6 0 23 -8 38 -20z"/>
<path d="M450 337 c-48 -24 -33 -97 20 -97 36 0 70 42 54 68 -20 32 -47 42
-74 29z"/>
<path d="M7712 334 c-24 -16 -28 -44 -12 -75 21 -39 100 -12 100 34 0 20 -34
57 -53 57 -7 0 -23 -7 -35 -16z"/>
<path d="M1792 328 c-6 -8 -33 -48 -61 -90 -27 -43 -75 -104 -105 -137 -67
-72 -73 -101 -22 -101 30 0 42 8 91 67 32 37 69 84 82 105 14 21 27 38 29 38
2 0 11 -15 20 -32 9 -18 37 -65 62 -105 44 -68 49 -72 85 -73 50 0 49 20 -8
95 -24 33 -61 94 -81 135 -20 41 -40 82 -44 90 -10 20 -34 24 -48 8z"/>
<path d="M4482 328 c-13 -13 -16 -57 -4 -75 9 -15 54 -25 68 -16 6 5 16 18 23
31 25 48 -48 99 -87 60z"/>
<path d="M2285 296 c-60 -28 -98 -69 -137 -151 -33 -70 -35 -100 -9 -114 26
-14 45 4 67 64 11 28 38 70 64 97 41 42 51 48 89 48 23 0 54 -6 69 -14 53 -28
92 -104 92 -182 l0 -44 41 0 42 0 -7 63 c-15 145 -117 257 -236 257 -14 0 -48
-11 -75 -24z"/>
<path d="M8282 248 c-21 -21 -14 -66 13 -84 30 -20 58 -11 74 22 9 22 9 31 -4
50 -17 26 -62 33 -83 12z"/>
<path d="M3506 227 c-31 -47 15 -98 65 -73 27 13 37 59 18 82 -18 22 -66 18
-83 -9z"/>
<path d="M9706 234 c-23 -23 -20 -71 5 -84 47 -26 101 18 78 63 -21 40 -56 49
-83 21z"/>
<path d="M6541 212 c-6 -10 -8 -27 -5 -38 4 -17 -20 -29 -190 -94 l-195 -75
97 -3 97 -2 165 63 c151 59 165 66 168 90 3 22 -4 30 -47 52 -60 30 -77 31
-90 7z"/>
<path d="M7682 178 c-17 -17 -15 -63 4 -82 41 -42 107 11 81 65 -14 27 -64 38
-85 17z"/>
<path d="M503 134 c-15 -24 -15 -29 -2 -53 27 -49 99 -32 99 23 0 28 -29 56
-58 56 -12 0 -29 -11 -39 -26z"/>
<path d="M4573 149 c-40 -15 -42 -78 -2 -100 41 -21 87 19 75 65 -7 28 -44 46
-73 35z"/>
<path d="M2320 97 c-25 -23 -61 -55 -80 -70 l-35 -27 61 0 c33 0 65 5 72 12 9
9 12 9 12 0 0 -7 15 -12 38 -12 l39 0 -9 57 c-9 58 -22 83 -42 83 -6 0 -31
-20 -56 -43z"/>
<path d="M8272 103 c-7 -3 -18 -16 -23 -30 -13 -36 12 -73 49 -73 35 0 52 16
52 50 0 43 -39 69 -78 53z"/>
<path d="M3482 44 c-40 -28 -28 -44 33 -44 52 0 55 1 45 20 -9 16 -40 40 -52
40 -2 0 -14 -7 -26 -16z"/>
<path d="M7752 34 c-34 -24 -26 -34 28 -34 28 0 50 4 50 9 0 10 -39 41 -50 41
-3 0 -16 -7 -28 -16z"/>
<path d="M9667 32 c-26 -28 -21 -32 38 -32 58 0 66 7 37 33 -24 22 -55 21 -75
-1z"/>
<path d="M8546 15 c-18 -14 -16 -15 28 -15 34 0 46 4 44 13 -6 18 -50 19 -72
2z"/>
</g>
</svg>
