<svg id="visual" viewBox="0 0 900 675" width="900" height="675" xmlns="http://www.w3.org/2000/svg" xmlns:xlink="http://www.w3.org/1999/xlink" version="1.1"><rect x="0" y="0" width="900" height="675" fill="#ffffff"></rect><defs><linearGradient id="grad1_0" x1="25%" y1="100%" x2="100%" y2="0%"><stop offset="23.333333333333336%" stop-color="#abb8c3" stop-opacity="1"></stop><stop offset="76.66666666666666%" stop-color="#abb8c3" stop-opacity="1"></stop></linearGradient></defs><defs><linearGradient id="grad1_1" x1="25%" y1="100%" x2="100%" y2="0%"><stop offset="23.333333333333336%" stop-color="#abb8c3" stop-opacity="1"></stop><stop offset="76.66666666666666%" stop-color="#d4dbe1" stop-opacity="1"></stop></linearGradient></defs><defs><linearGradient id="grad1_2" x1="25%" y1="100%" x2="100%" y2="0%"><stop offset="23.333333333333336%" stop-color="#ffffff" stop-opacity="1"></stop><stop offset="76.66666666666666%" stop-color="#d4dbe1" stop-opacity="1"></stop></linearGradient></defs><defs><linearGradient id="grad2_0" x1="0%" y1="100%" x2="75%" y2="0%"><stop offset="23.333333333333336%" stop-color="#abb8c3" stop-opacity="1"></stop><stop offset="76.66666666666666%" stop-color="#abb8c3" stop-opacity="1"></stop></linearGradient></defs><defs><linearGradient id="grad2_1" x1="0%" y1="100%" x2="75%" y2="0%"><stop offset="23.333333333333336%" stop-color="#d4dbe1" stop-opacity="1"></stop><stop offset="76.66666666666666%" stop-color="#abb8c3" stop-opacity="1"></stop></linearGradient></defs><defs><linearGradient id="grad2_2" x1="0%" y1="100%" x2="75%" y2="0%"><stop offset="23.333333333333336%" stop-color="#d4dbe1" stop-opacity="1"></stop><stop offset="76.66666666666666%" stop-color="#ffffff" stop-opacity="1"></stop></linearGradient></defs><g transform="translate(900, 675)"><path d="M-450 0C-405.1 -59.1 -360.1 -118.2 -328.2 -189.5C-296.3 -260.8 -277.5 -344.3 -225 -389.7C-172.5 -435.2 -86.2 -442.6 0 -450L0 0Z" fill="#eaedf0"></path><path d="M-300 0C-270 -39.4 -240.1 -78.8 -218.8 -126.3C-197.6 -173.9 -185 -229.5 -150 -259.8C-115 -290.1 -57.5 -295.1 0 -300L0 0Z" fill="#c0c9d2"></path><path d="M-150 0C-135 -19.7 -120 -39.4 -109.4 -63.2C-98.8 -86.9 -92.5 -114.8 -75 -129.9C-57.5 -145.1 -28.7 -147.5 0 -150L0 0Z" fill="#abb8c3"></path></g><g transform="translate(0, 0)"><path d="M450 0C406 59.6 362 119.3 330 190.5C298 261.7 278 344.5 225 389.7C172 434.9 86 442.4 0 450L0 0Z" fill="#eaedf0"></path><path d="M300 0C270.7 39.8 241.3 79.5 220 127C198.6 174.5 185.3 229.7 150 259.8C114.7 289.9 57.3 295 0 300L0 0Z" fill="#c0c9d2"></path><path d="M150 0C135.3 19.9 120.7 39.8 110 63.5C99.3 87.2 92.7 114.8 75 129.9C57.3 145 28.7 147.5 0 150L0 0Z" fill="#abb8c3"></path></g></svg>